<svg xmlns="http://www.w3.org/2000/svg" xmlns:xlink="http://www.w3.org/1999/xlink" width="600" height="400" viewBox="0 0 2400 1600">
<defs>
  <clipPath id="clip570">
    <rect x="0" y="0" width="2400" height="1600"></rect>
  </clipPath>
</defs>
<path clip-path="url(#clip570)" d="M0 1600 L2400 1600 L2400 0 L0 0  Z" fill="#ffffff" fill-rule="evenodd" fill-opacity="1"></path>
<defs>
  <clipPath id="clip571">
    <rect x="480" y="0" width="1681" height="1600"></rect>
  </clipPath>
</defs>
<path clip-path="url(#clip570)" d="M205.121 1423.18 L2352.76 1423.18 L2352.76 47.2441 L205.121 47.2441  Z" fill="#ffffff" fill-rule="evenodd" fill-opacity="1"></path>
<defs>
  <clipPath id="clip572">
    <rect x="205" y="47" width="2149" height="1377"></rect>
  </clipPath>
</defs>
<polyline clip-path="url(#clip572)" style="stroke:#000000; stroke-linecap:round; stroke-linejoin:round; stroke-width:2; stroke-opacity:0.1; fill:none" points="261.843,1423.18 261.843,47.2441 "></polyline>
<polyline clip-path="url(#clip572)" style="stroke:#000000; stroke-linecap:round; stroke-linejoin:round; stroke-width:2; stroke-opacity:0.1; fill:none" points="667.869,1423.18 667.869,47.2441 "></polyline>
<polyline clip-path="url(#clip572)" style="stroke:#000000; stroke-linecap:round; stroke-linejoin:round; stroke-width:2; stroke-opacity:0.1; fill:none" points="1073.9,1423.18 1073.9,47.2441 "></polyline>
<polyline clip-path="url(#clip572)" style="stroke:#000000; stroke-linecap:round; stroke-linejoin:round; stroke-width:2; stroke-opacity:0.1; fill:none" points="1479.92,1423.18 1479.92,47.2441 "></polyline>
<polyline clip-path="url(#clip572)" style="stroke:#000000; stroke-linecap:round; stroke-linejoin:round; stroke-width:2; stroke-opacity:0.1; fill:none" points="1885.95,1423.18 1885.95,47.2441 "></polyline>
<polyline clip-path="url(#clip572)" style="stroke:#000000; stroke-linecap:round; stroke-linejoin:round; stroke-width:2; stroke-opacity:0.1; fill:none" points="2291.97,1423.18 2291.97,47.2441 "></polyline>
<polyline clip-path="url(#clip570)" style="stroke:#000000; stroke-linecap:round; stroke-linejoin:round; stroke-width:4; stroke-opacity:1; fill:none" points="205.121,1423.18 2352.76,1423.18 "></polyline>
<polyline clip-path="url(#clip570)" style="stroke:#000000; stroke-linecap:round; stroke-linejoin:round; stroke-width:4; stroke-opacity:1; fill:none" points="261.843,1423.18 261.843,1404.28 "></polyline>
<polyline clip-path="url(#clip570)" style="stroke:#000000; stroke-linecap:round; stroke-linejoin:round; stroke-width:4; stroke-opacity:1; fill:none" points="667.869,1423.18 667.869,1404.28 "></polyline>
<polyline clip-path="url(#clip570)" style="stroke:#000000; stroke-linecap:round; stroke-linejoin:round; stroke-width:4; stroke-opacity:1; fill:none" points="1073.9,1423.18 1073.9,1404.28 "></polyline>
<polyline clip-path="url(#clip570)" style="stroke:#000000; stroke-linecap:round; stroke-linejoin:round; stroke-width:4; stroke-opacity:1; fill:none" points="1479.92,1423.18 1479.92,1404.28 "></polyline>
<polyline clip-path="url(#clip570)" style="stroke:#000000; stroke-linecap:round; stroke-linejoin:round; stroke-width:4; stroke-opacity:1; fill:none" points="1885.95,1423.18 1885.95,1404.28 "></polyline>
<polyline clip-path="url(#clip570)" style="stroke:#000000; stroke-linecap:round; stroke-linejoin:round; stroke-width:4; stroke-opacity:1; fill:none" points="2291.97,1423.18 2291.97,1404.28 "></polyline>
<path clip-path="url(#clip570)" d="M261.843 1454.1 Q258.232 1454.1 256.403 1457.66 Q254.598 1461.2 254.598 1468.33 Q254.598 1475.44 256.403 1479.01 Q258.232 1482.55 261.843 1482.55 Q265.477 1482.55 267.283 1479.01 Q269.111 1475.44 269.111 1468.33 Q269.111 1461.2 267.283 1457.66 Q265.477 1454.1 261.843 1454.1 M261.843 1450.39 Q267.653 1450.39 270.709 1455 Q273.787 1459.58 273.787 1468.33 Q273.787 1477.06 270.709 1481.67 Q267.653 1486.25 261.843 1486.25 Q256.033 1486.25 252.954 1481.67 Q249.898 1477.06 249.898 1468.33 Q249.898 1459.58 252.954 1455 Q256.033 1450.39 261.843 1450.39 Z" fill="#000000" fill-rule="nonzero" fill-opacity="1"></path><path clip-path="url(#clip570)" d="M627.476 1481.64 L635.115 1481.64 L635.115 1455.28 L626.804 1456.95 L626.804 1452.69 L635.068 1451.02 L639.744 1451.02 L639.744 1481.64 L647.383 1481.64 L647.383 1485.58 L627.476 1485.58 L627.476 1481.64 Z" fill="#000000" fill-rule="nonzero" fill-opacity="1"></path><path clip-path="url(#clip570)" d="M666.827 1454.1 Q663.216 1454.1 661.388 1457.66 Q659.582 1461.2 659.582 1468.33 Q659.582 1475.44 661.388 1479.01 Q663.216 1482.55 666.827 1482.55 Q670.462 1482.55 672.267 1479.01 Q674.096 1475.44 674.096 1468.33 Q674.096 1461.2 672.267 1457.66 Q670.462 1454.1 666.827 1454.1 M666.827 1450.39 Q672.638 1450.39 675.693 1455 Q678.772 1459.58 678.772 1468.33 Q678.772 1477.06 675.693 1481.67 Q672.638 1486.25 666.827 1486.25 Q661.017 1486.25 657.939 1481.67 Q654.883 1477.06 654.883 1468.33 Q654.883 1459.58 657.939 1455 Q661.017 1450.39 666.827 1450.39 Z" fill="#000000" fill-rule="nonzero" fill-opacity="1"></path><path clip-path="url(#clip570)" d="M696.989 1454.1 Q693.378 1454.1 691.549 1457.66 Q689.744 1461.2 689.744 1468.33 Q689.744 1475.44 691.549 1479.01 Q693.378 1482.55 696.989 1482.55 Q700.623 1482.55 702.429 1479.01 Q704.258 1475.44 704.258 1468.33 Q704.258 1461.2 702.429 1457.66 Q700.623 1454.1 696.989 1454.1 M696.989 1450.39 Q702.799 1450.39 705.855 1455 Q708.934 1459.58 708.934 1468.33 Q708.934 1477.06 705.855 1481.67 Q702.799 1486.25 696.989 1486.25 Q691.179 1486.25 688.1 1481.67 Q685.045 1477.06 685.045 1468.33 Q685.045 1459.58 688.1 1455 Q691.179 1450.39 696.989 1450.39 Z" fill="#000000" fill-rule="nonzero" fill-opacity="1"></path><path clip-path="url(#clip570)" d="M1037.59 1481.64 L1053.91 1481.64 L1053.91 1485.58 L1031.96 1485.58 L1031.96 1481.64 Q1034.62 1478.89 1039.21 1474.26 Q1043.81 1469.61 1044.99 1468.27 Q1047.24 1465.74 1048.12 1464.01 Q1049.02 1462.25 1049.02 1460.56 Q1049.02 1457.8 1047.08 1456.07 Q1045.16 1454.33 1042.06 1454.33 Q1039.86 1454.33 1037.4 1455.09 Q1034.97 1455.86 1032.19 1457.41 L1032.19 1452.69 Q1035.02 1451.55 1037.47 1450.97 Q1039.93 1450.39 1041.96 1450.39 Q1047.33 1450.39 1050.53 1453.08 Q1053.72 1455.77 1053.72 1460.26 Q1053.72 1462.39 1052.91 1464.31 Q1052.12 1466.2 1050.02 1468.8 Q1049.44 1469.47 1046.34 1472.69 Q1043.24 1475.88 1037.59 1481.64 Z" fill="#000000" fill-rule="nonzero" fill-opacity="1"></path><path clip-path="url(#clip570)" d="M1073.72 1454.1 Q1070.11 1454.1 1068.28 1457.66 Q1066.48 1461.2 1066.48 1468.33 Q1066.48 1475.44 1068.28 1479.01 Q1070.11 1482.55 1073.72 1482.55 Q1077.36 1482.55 1079.16 1479.01 Q1080.99 1475.44 1080.99 1468.33 Q1080.99 1461.2 1079.16 1457.66 Q1077.36 1454.1 1073.72 1454.1 M1073.72 1450.39 Q1079.53 1450.39 1082.59 1455 Q1085.67 1459.58 1085.67 1468.33 Q1085.67 1477.06 1082.59 1481.67 Q1079.53 1486.25 1073.72 1486.25 Q1067.91 1486.25 1064.83 1481.67 Q1061.78 1477.06 1061.78 1468.33 Q1061.78 1459.58 1064.83 1455 Q1067.91 1450.39 1073.72 1450.39 Z" fill="#000000" fill-rule="nonzero" fill-opacity="1"></path><path clip-path="url(#clip570)" d="M1103.88 1454.1 Q1100.27 1454.1 1098.44 1457.66 Q1096.64 1461.2 1096.64 1468.33 Q1096.64 1475.44 1098.44 1479.01 Q1100.27 1482.55 1103.88 1482.55 Q1107.52 1482.55 1109.32 1479.01 Q1111.15 1475.44 1111.15 1468.33 Q1111.15 1461.2 1109.32 1457.66 Q1107.52 1454.1 1103.88 1454.1 M1103.88 1450.39 Q1109.69 1450.39 1112.75 1455 Q1115.83 1459.58 1115.83 1468.33 Q1115.83 1477.06 1112.75 1481.67 Q1109.69 1486.25 1103.88 1486.25 Q1098.07 1486.25 1094.99 1481.67 Q1091.94 1477.06 1091.94 1468.33 Q1091.94 1459.58 1094.99 1455 Q1098.07 1450.39 1103.88 1450.39 Z" fill="#000000" fill-rule="nonzero" fill-opacity="1"></path><path clip-path="url(#clip570)" d="M1453.68 1466.95 Q1457.04 1467.66 1458.91 1469.93 Q1460.81 1472.2 1460.81 1475.53 Q1460.81 1480.65 1457.29 1483.45 Q1453.78 1486.25 1447.29 1486.25 Q1445.12 1486.25 1442.8 1485.81 Q1440.51 1485.39 1438.06 1484.54 L1438.06 1480.02 Q1440 1481.16 1442.32 1481.74 Q1444.63 1482.32 1447.16 1482.32 Q1451.55 1482.32 1453.85 1480.58 Q1456.16 1478.84 1456.16 1475.53 Q1456.16 1472.48 1454.01 1470.77 Q1451.88 1469.03 1448.06 1469.03 L1444.03 1469.03 L1444.03 1465.19 L1448.24 1465.19 Q1451.69 1465.19 1453.52 1463.82 Q1455.35 1462.43 1455.35 1459.84 Q1455.35 1457.18 1453.45 1455.77 Q1451.58 1454.33 1448.06 1454.33 Q1446.14 1454.33 1443.94 1454.75 Q1441.74 1455.16 1439.1 1456.04 L1439.1 1451.88 Q1441.76 1451.14 1444.08 1450.77 Q1446.41 1450.39 1448.47 1450.39 Q1453.8 1450.39 1456.9 1452.83 Q1460 1455.23 1460 1459.35 Q1460 1462.22 1458.36 1464.21 Q1456.72 1466.18 1453.68 1466.95 Z" fill="#000000" fill-rule="nonzero" fill-opacity="1"></path><path clip-path="url(#clip570)" d="M1479.68 1454.1 Q1476.07 1454.1 1474.24 1457.66 Q1472.43 1461.2 1472.43 1468.33 Q1472.43 1475.44 1474.24 1479.01 Q1476.07 1482.55 1479.68 1482.55 Q1483.31 1482.55 1485.12 1479.01 Q1486.95 1475.44 1486.95 1468.33 Q1486.95 1461.2 1485.12 1457.66 Q1483.31 1454.1 1479.68 1454.1 M1479.68 1450.39 Q1485.49 1450.39 1488.54 1455 Q1491.62 1459.58 1491.62 1468.33 Q1491.62 1477.06 1488.54 1481.67 Q1485.49 1486.25 1479.68 1486.25 Q1473.87 1486.25 1470.79 1481.67 Q1467.73 1477.06 1467.73 1468.33 Q1467.73 1459.58 1470.79 1455 Q1473.87 1450.39 1479.68 1450.39 Z" fill="#000000" fill-rule="nonzero" fill-opacity="1"></path><path clip-path="url(#clip570)" d="M1509.84 1454.1 Q1506.23 1454.1 1504.4 1457.66 Q1502.59 1461.2 1502.59 1468.33 Q1502.59 1475.44 1504.4 1479.01 Q1506.23 1482.55 1509.84 1482.55 Q1513.47 1482.55 1515.28 1479.01 Q1517.11 1475.44 1517.11 1468.33 Q1517.11 1461.2 1515.28 1457.66 Q1513.47 1454.1 1509.84 1454.1 M1509.84 1450.39 Q1515.65 1450.39 1518.71 1455 Q1521.78 1459.58 1521.78 1468.33 Q1521.78 1477.06 1518.71 1481.67 Q1515.65 1486.25 1509.84 1486.25 Q1504.03 1486.25 1500.95 1481.67 Q1497.9 1477.06 1497.9 1468.33 Q1497.9 1459.58 1500.95 1455 Q1504.03 1450.39 1509.84 1450.39 Z" fill="#000000" fill-rule="nonzero" fill-opacity="1"></path><path clip-path="url(#clip570)" d="M1859.04 1455.09 L1847.23 1473.54 L1859.04 1473.54 L1859.04 1455.09 M1857.81 1451.02 L1863.69 1451.02 L1863.69 1473.54 L1868.62 1473.54 L1868.62 1477.43 L1863.69 1477.43 L1863.69 1485.58 L1859.04 1485.58 L1859.04 1477.43 L1843.44 1477.43 L1843.44 1472.92 L1857.81 1451.02 Z" fill="#000000" fill-rule="nonzero" fill-opacity="1"></path><path clip-path="url(#clip570)" d="M1886.35 1454.1 Q1882.74 1454.1 1880.91 1457.66 Q1879.11 1461.2 1879.11 1468.33 Q1879.11 1475.44 1880.91 1479.01 Q1882.74 1482.55 1886.35 1482.55 Q1889.99 1482.55 1891.79 1479.01 Q1893.62 1475.44 1893.62 1468.33 Q1893.62 1461.2 1891.79 1457.66 Q1889.99 1454.1 1886.35 1454.1 M1886.35 1450.39 Q1892.16 1450.39 1895.22 1455 Q1898.3 1459.58 1898.3 1468.33 Q1898.3 1477.06 1895.22 1481.67 Q1892.16 1486.25 1886.35 1486.25 Q1880.54 1486.25 1877.46 1481.67 Q1874.41 1477.06 1874.41 1468.33 Q1874.41 1459.58 1877.46 1455 Q1880.54 1450.39 1886.35 1450.39 Z" fill="#000000" fill-rule="nonzero" fill-opacity="1"></path><path clip-path="url(#clip570)" d="M1916.51 1454.1 Q1912.9 1454.1 1911.07 1457.66 Q1909.27 1461.2 1909.27 1468.33 Q1909.27 1475.44 1911.07 1479.01 Q1912.9 1482.55 1916.51 1482.55 Q1920.15 1482.55 1921.95 1479.01 Q1923.78 1475.44 1923.78 1468.33 Q1923.78 1461.2 1921.95 1457.66 Q1920.15 1454.1 1916.51 1454.1 M1916.51 1450.39 Q1922.32 1450.39 1925.38 1455 Q1928.46 1459.58 1928.46 1468.33 Q1928.46 1477.06 1925.38 1481.67 Q1922.32 1486.25 1916.51 1486.25 Q1910.7 1486.25 1907.63 1481.67 Q1904.57 1477.06 1904.57 1468.33 Q1904.57 1459.58 1907.63 1455 Q1910.7 1450.39 1916.51 1450.39 Z" fill="#000000" fill-rule="nonzero" fill-opacity="1"></path><path clip-path="url(#clip570)" d="M2251.59 1451.02 L2269.95 1451.02 L2269.95 1454.96 L2255.87 1454.96 L2255.87 1463.43 Q2256.89 1463.08 2257.91 1462.92 Q2258.93 1462.73 2259.95 1462.73 Q2265.74 1462.73 2269.12 1465.9 Q2272.49 1469.08 2272.49 1474.49 Q2272.49 1480.07 2269.02 1483.17 Q2265.55 1486.25 2259.23 1486.25 Q2257.05 1486.25 2254.79 1485.88 Q2252.54 1485.51 2250.13 1484.77 L2250.13 1480.07 Q2252.22 1481.2 2254.44 1481.76 Q2256.66 1482.32 2259.14 1482.32 Q2263.14 1482.32 2265.48 1480.21 Q2267.82 1478.1 2267.82 1474.49 Q2267.82 1470.88 2265.48 1468.77 Q2263.14 1466.67 2259.14 1466.67 Q2257.26 1466.67 2255.39 1467.08 Q2253.54 1467.5 2251.59 1468.38 L2251.59 1451.02 Z" fill="#000000" fill-rule="nonzero" fill-opacity="1"></path><path clip-path="url(#clip570)" d="M2291.71 1454.1 Q2288.1 1454.1 2286.27 1457.66 Q2284.46 1461.2 2284.46 1468.33 Q2284.46 1475.44 2286.27 1479.01 Q2288.1 1482.55 2291.71 1482.55 Q2295.34 1482.55 2297.15 1479.01 Q2298.98 1475.44 2298.98 1468.33 Q2298.98 1461.2 2297.15 1457.66 Q2295.34 1454.1 2291.71 1454.1 M2291.71 1450.39 Q2297.52 1450.39 2300.57 1455 Q2303.65 1459.58 2303.65 1468.33 Q2303.65 1477.06 2300.57 1481.67 Q2297.52 1486.25 2291.71 1486.25 Q2285.9 1486.25 2282.82 1481.67 Q2279.76 1477.06 2279.76 1468.33 Q2279.76 1459.58 2282.82 1455 Q2285.9 1450.39 2291.71 1450.39 Z" fill="#000000" fill-rule="nonzero" fill-opacity="1"></path><path clip-path="url(#clip570)" d="M2321.87 1454.1 Q2318.26 1454.1 2316.43 1457.66 Q2314.62 1461.2 2314.62 1468.33 Q2314.62 1475.44 2316.43 1479.01 Q2318.26 1482.55 2321.87 1482.55 Q2325.5 1482.55 2327.31 1479.01 Q2329.14 1475.44 2329.14 1468.33 Q2329.14 1461.2 2327.31 1457.66 Q2325.5 1454.1 2321.87 1454.1 M2321.87 1450.39 Q2327.68 1450.39 2330.74 1455 Q2333.81 1459.58 2333.81 1468.33 Q2333.81 1477.06 2330.74 1481.67 Q2327.68 1486.25 2321.87 1486.25 Q2316.06 1486.25 2312.98 1481.67 Q2309.93 1477.06 2309.93 1468.33 Q2309.93 1459.58 2312.98 1455 Q2316.06 1450.39 2321.87 1450.39 Z" fill="#000000" fill-rule="nonzero" fill-opacity="1"></path><path clip-path="url(#clip570)" d="M1188.05 1548.76 L1188.05 1551.62 L1161.13 1551.62 Q1161.51 1557.67 1164.75 1560.85 Q1168.03 1564 1173.86 1564 Q1177.23 1564 1180.38 1563.17 Q1183.56 1562.35 1186.68 1560.69 L1186.68 1566.23 Q1183.53 1567.57 1180.22 1568.27 Q1176.91 1568.97 1173.51 1568.97 Q1164.98 1568.97 1159.98 1564 Q1155.01 1559.04 1155.01 1550.57 Q1155.01 1541.82 1159.72 1536.69 Q1164.47 1531.54 1172.49 1531.54 Q1179.68 1531.54 1183.85 1536.18 Q1188.05 1540.8 1188.05 1548.76 M1182.2 1547.04 Q1182.13 1542.23 1179.49 1539.37 Q1176.88 1536.5 1172.55 1536.5 Q1167.65 1536.5 1164.69 1539.27 Q1161.76 1542.04 1161.32 1547.07 L1182.2 1547.04 Z" fill="#000000" fill-rule="nonzero" fill-opacity="1"></path><path clip-path="url(#clip570)" d="M1203.33 1562.7 L1203.33 1581.6 L1197.44 1581.6 L1197.44 1532.4 L1203.33 1532.4 L1203.33 1537.81 Q1205.18 1534.62 1207.98 1533.1 Q1210.81 1531.54 1214.72 1531.54 Q1221.22 1531.54 1225.26 1536.69 Q1229.33 1541.85 1229.33 1550.25 Q1229.33 1558.65 1225.26 1563.81 Q1221.22 1568.97 1214.72 1568.97 Q1210.81 1568.97 1207.98 1567.44 Q1205.18 1565.88 1203.33 1562.7 M1223.25 1550.25 Q1223.25 1543.79 1220.58 1540.13 Q1217.94 1536.44 1213.29 1536.44 Q1208.65 1536.44 1205.97 1540.13 Q1203.33 1543.79 1203.33 1550.25 Q1203.33 1556.71 1205.97 1560.4 Q1208.65 1564.07 1213.29 1564.07 Q1217.94 1564.07 1220.58 1560.4 Q1223.25 1556.71 1223.25 1550.25 Z" fill="#000000" fill-rule="nonzero" fill-opacity="1"></path><path clip-path="url(#clip570)" d="M1239.04 1532.4 L1244.9 1532.4 L1244.9 1568.04 L1239.04 1568.04 L1239.04 1532.4 M1239.04 1518.52 L1244.9 1518.52 L1244.9 1525.93 L1239.04 1525.93 L1239.04 1518.52 Z" fill="#000000" fill-rule="nonzero" fill-opacity="1"></path><path clip-path="url(#clip570)" d="M1279.88 1533.45 L1279.88 1538.98 Q1277.39 1537.71 1274.72 1537.07 Q1272.05 1536.44 1269.18 1536.44 Q1264.82 1536.44 1262.63 1537.77 Q1260.46 1539.11 1260.46 1541.79 Q1260.46 1543.82 1262.02 1545 Q1263.58 1546.15 1268.29 1547.2 L1270.3 1547.64 Q1276.54 1548.98 1279.15 1551.43 Q1281.79 1553.85 1281.79 1558.21 Q1281.79 1563.17 1277.84 1566.07 Q1273.93 1568.97 1267.05 1568.97 Q1264.19 1568.97 1261.07 1568.39 Q1257.98 1567.85 1254.54 1566.74 L1254.54 1560.69 Q1257.79 1562.38 1260.94 1563.24 Q1264.09 1564.07 1267.18 1564.07 Q1271.32 1564.07 1273.54 1562.66 Q1275.77 1561.23 1275.77 1558.65 Q1275.77 1556.27 1274.15 1554.99 Q1272.56 1553.72 1267.11 1552.54 L1265.08 1552.07 Q1259.63 1550.92 1257.22 1548.56 Q1254.8 1546.18 1254.8 1542.04 Q1254.8 1537.01 1258.36 1534.27 Q1261.93 1531.54 1268.48 1531.54 Q1271.73 1531.54 1274.59 1532.01 Q1277.46 1532.49 1279.88 1533.45 Z" fill="#000000" fill-rule="nonzero" fill-opacity="1"></path><path clip-path="url(#clip570)" d="M1304.93 1536.5 Q1300.22 1536.5 1297.48 1540.19 Q1294.74 1543.85 1294.74 1550.25 Q1294.74 1556.65 1297.45 1560.34 Q1300.18 1564 1304.93 1564 Q1309.61 1564 1312.34 1560.31 Q1315.08 1556.62 1315.08 1550.25 Q1315.08 1543.92 1312.34 1540.23 Q1309.61 1536.5 1304.93 1536.5 M1304.93 1531.54 Q1312.57 1531.54 1316.93 1536.5 Q1321.29 1541.47 1321.29 1550.25 Q1321.29 1559 1316.93 1564 Q1312.57 1568.97 1304.93 1568.97 Q1297.26 1568.97 1292.9 1564 Q1288.57 1559 1288.57 1550.25 Q1288.57 1541.47 1292.9 1536.5 Q1297.26 1531.54 1304.93 1531.54 Z" fill="#000000" fill-rule="nonzero" fill-opacity="1"></path><path clip-path="url(#clip570)" d="M1354.45 1537.81 L1354.45 1518.52 L1360.31 1518.52 L1360.31 1568.04 L1354.45 1568.04 L1354.45 1562.7 Q1352.61 1565.88 1349.77 1567.44 Q1346.97 1568.97 1343.03 1568.97 Q1336.56 1568.97 1332.49 1563.81 Q1328.45 1558.65 1328.45 1550.25 Q1328.45 1541.85 1332.49 1536.69 Q1336.56 1531.54 1343.03 1531.54 Q1346.97 1531.54 1349.77 1533.1 Q1352.61 1534.62 1354.45 1537.81 M1334.5 1550.25 Q1334.5 1556.71 1337.14 1560.4 Q1339.81 1564.07 1344.46 1564.07 Q1349.1 1564.07 1351.78 1560.4 Q1354.45 1556.71 1354.45 1550.25 Q1354.45 1543.79 1351.78 1540.13 Q1349.1 1536.44 1344.46 1536.44 Q1339.81 1536.44 1337.14 1540.13 Q1334.5 1543.79 1334.5 1550.25 Z" fill="#000000" fill-rule="nonzero" fill-opacity="1"></path><path clip-path="url(#clip570)" d="M1402.86 1548.76 L1402.86 1551.62 L1375.94 1551.62 Q1376.32 1557.67 1379.56 1560.85 Q1382.84 1564 1388.67 1564 Q1392.04 1564 1395.19 1563.17 Q1398.38 1562.35 1401.49 1560.69 L1401.49 1566.23 Q1398.34 1567.57 1395.03 1568.27 Q1391.72 1568.97 1388.32 1568.97 Q1379.79 1568.97 1374.79 1564 Q1369.82 1559.04 1369.82 1550.57 Q1369.82 1541.82 1374.54 1536.69 Q1379.28 1531.54 1387.3 1531.54 Q1394.49 1531.54 1398.66 1536.18 Q1402.86 1540.8 1402.86 1548.76 M1397.01 1547.04 Q1396.94 1542.23 1394.3 1539.37 Q1391.69 1536.5 1387.36 1536.5 Q1382.46 1536.5 1379.5 1539.27 Q1376.57 1542.04 1376.13 1547.07 L1397.01 1547.04 Z" fill="#000000" fill-rule="nonzero" fill-opacity="1"></path><polyline clip-path="url(#clip572)" style="stroke:#000000; stroke-linecap:round; stroke-linejoin:round; stroke-width:2; stroke-opacity:0.1; fill:none" points="205.121,1202.7 2352.76,1202.7 "></polyline>
<polyline clip-path="url(#clip572)" style="stroke:#000000; stroke-linecap:round; stroke-linejoin:round; stroke-width:2; stroke-opacity:0.1; fill:none" points="205.121,955.806 2352.76,955.806 "></polyline>
<polyline clip-path="url(#clip572)" style="stroke:#000000; stroke-linecap:round; stroke-linejoin:round; stroke-width:2; stroke-opacity:0.1; fill:none" points="205.121,708.913 2352.76,708.913 "></polyline>
<polyline clip-path="url(#clip572)" style="stroke:#000000; stroke-linecap:round; stroke-linejoin:round; stroke-width:2; stroke-opacity:0.1; fill:none" points="205.121,462.021 2352.76,462.021 "></polyline>
<polyline clip-path="url(#clip572)" style="stroke:#000000; stroke-linecap:round; stroke-linejoin:round; stroke-width:2; stroke-opacity:0.1; fill:none" points="205.121,215.128 2352.76,215.128 "></polyline>
<polyline clip-path="url(#clip570)" style="stroke:#000000; stroke-linecap:round; stroke-linejoin:round; stroke-width:4; stroke-opacity:1; fill:none" points="205.121,1423.18 205.121,47.2441 "></polyline>
<polyline clip-path="url(#clip570)" style="stroke:#000000; stroke-linecap:round; stroke-linejoin:round; stroke-width:4; stroke-opacity:1; fill:none" points="205.121,1202.7 224.019,1202.7 "></polyline>
<polyline clip-path="url(#clip570)" style="stroke:#000000; stroke-linecap:round; stroke-linejoin:round; stroke-width:4; stroke-opacity:1; fill:none" points="205.121,955.806 224.019,955.806 "></polyline>
<polyline clip-path="url(#clip570)" style="stroke:#000000; stroke-linecap:round; stroke-linejoin:round; stroke-width:4; stroke-opacity:1; fill:none" points="205.121,708.913 224.019,708.913 "></polyline>
<polyline clip-path="url(#clip570)" style="stroke:#000000; stroke-linecap:round; stroke-linejoin:round; stroke-width:4; stroke-opacity:1; fill:none" points="205.121,462.021 224.019,462.021 "></polyline>
<polyline clip-path="url(#clip570)" style="stroke:#000000; stroke-linecap:round; stroke-linejoin:round; stroke-width:4; stroke-opacity:1; fill:none" points="205.121,215.128 224.019,215.128 "></polyline>
<path clip-path="url(#clip570)" d="M157.177 1188.5 Q153.566 1188.5 151.737 1192.06 Q149.931 1195.6 149.931 1202.73 Q149.931 1209.84 151.737 1213.4 Q153.566 1216.95 157.177 1216.95 Q160.811 1216.95 162.616 1213.4 Q164.445 1209.84 164.445 1202.73 Q164.445 1195.6 162.616 1192.06 Q160.811 1188.5 157.177 1188.5 M157.177 1184.79 Q162.987 1184.79 166.042 1189.4 Q169.121 1193.98 169.121 1202.73 Q169.121 1211.46 166.042 1216.07 Q162.987 1220.65 157.177 1220.65 Q151.366 1220.65 148.288 1216.07 Q145.232 1211.46 145.232 1202.73 Q145.232 1193.98 148.288 1189.4 Q151.366 1184.79 157.177 1184.79 Z" fill="#000000" fill-rule="nonzero" fill-opacity="1"></path><path clip-path="url(#clip570)" d="M117.825 969.151 L125.464 969.151 L125.464 942.785 L117.154 944.452 L117.154 940.193 L125.418 938.526 L130.093 938.526 L130.093 969.151 L137.732 969.151 L137.732 973.086 L117.825 973.086 L117.825 969.151 Z" fill="#000000" fill-rule="nonzero" fill-opacity="1"></path><path clip-path="url(#clip570)" d="M157.177 941.605 Q153.566 941.605 151.737 945.17 Q149.931 948.711 149.931 955.841 Q149.931 962.947 151.737 966.512 Q153.566 970.054 157.177 970.054 Q160.811 970.054 162.616 966.512 Q164.445 962.947 164.445 955.841 Q164.445 948.711 162.616 945.17 Q160.811 941.605 157.177 941.605 M157.177 937.901 Q162.987 937.901 166.042 942.508 Q169.121 947.091 169.121 955.841 Q169.121 964.568 166.042 969.174 Q162.987 973.757 157.177 973.757 Q151.366 973.757 148.288 969.174 Q145.232 964.568 145.232 955.841 Q145.232 947.091 148.288 942.508 Q151.366 937.901 157.177 937.901 Z" fill="#000000" fill-rule="nonzero" fill-opacity="1"></path><path clip-path="url(#clip570)" d="M121.043 722.258 L137.362 722.258 L137.362 726.193 L115.418 726.193 L115.418 722.258 Q118.08 719.504 122.663 714.874 Q127.269 710.221 128.45 708.879 Q130.695 706.356 131.575 704.619 Q132.478 702.86 132.478 701.17 Q132.478 698.416 130.533 696.68 Q128.612 694.944 125.51 694.944 Q123.311 694.944 120.857 695.708 Q118.427 696.471 115.649 698.022 L115.649 693.3 Q118.473 692.166 120.927 691.587 Q123.38 691.008 125.418 691.008 Q130.788 691.008 133.982 693.694 Q137.177 696.379 137.177 700.87 Q137.177 702.999 136.367 704.92 Q135.579 706.819 133.473 709.411 Q132.894 710.082 129.792 713.3 Q126.691 716.494 121.043 722.258 Z" fill="#000000" fill-rule="nonzero" fill-opacity="1"></path><path clip-path="url(#clip570)" d="M157.177 694.712 Q153.566 694.712 151.737 698.277 Q149.931 701.819 149.931 708.948 Q149.931 716.055 151.737 719.619 Q153.566 723.161 157.177 723.161 Q160.811 723.161 162.616 719.619 Q164.445 716.055 164.445 708.948 Q164.445 701.819 162.616 698.277 Q160.811 694.712 157.177 694.712 M157.177 691.008 Q162.987 691.008 166.042 695.615 Q169.121 700.198 169.121 708.948 Q169.121 717.675 166.042 722.281 Q162.987 726.865 157.177 726.865 Q151.366 726.865 148.288 722.281 Q145.232 717.675 145.232 708.948 Q145.232 700.198 148.288 695.615 Q151.366 691.008 157.177 691.008 Z" fill="#000000" fill-rule="nonzero" fill-opacity="1"></path><path clip-path="url(#clip570)" d="M131.181 460.667 Q134.538 461.384 136.413 463.653 Q138.311 465.921 138.311 469.255 Q138.311 474.37 134.792 477.171 Q131.274 479.972 124.793 479.972 Q122.617 479.972 120.302 479.532 Q118.01 479.116 115.556 478.259 L115.556 473.745 Q117.501 474.88 119.816 475.458 Q122.13 476.037 124.654 476.037 Q129.052 476.037 131.343 474.301 Q133.658 472.565 133.658 469.255 Q133.658 466.199 131.505 464.486 Q129.376 462.75 125.556 462.75 L121.529 462.75 L121.529 458.907 L125.742 458.907 Q129.191 458.907 131.019 457.542 Q132.848 456.153 132.848 453.56 Q132.848 450.898 130.95 449.486 Q129.075 448.051 125.556 448.051 Q123.635 448.051 121.436 448.468 Q119.237 448.884 116.598 449.764 L116.598 445.597 Q119.26 444.857 121.575 444.486 Q123.913 444.116 125.973 444.116 Q131.297 444.116 134.399 446.546 Q137.501 448.954 137.501 453.074 Q137.501 455.944 135.857 457.935 Q134.214 459.903 131.181 460.667 Z" fill="#000000" fill-rule="nonzero" fill-opacity="1"></path><path clip-path="url(#clip570)" d="M157.177 447.819 Q153.566 447.819 151.737 451.384 Q149.931 454.926 149.931 462.056 Q149.931 469.162 151.737 472.727 Q153.566 476.268 157.177 476.268 Q160.811 476.268 162.616 472.727 Q164.445 469.162 164.445 462.056 Q164.445 454.926 162.616 451.384 Q160.811 447.819 157.177 447.819 M157.177 444.116 Q162.987 444.116 166.042 448.722 Q169.121 453.306 169.121 462.056 Q169.121 470.782 166.042 475.389 Q162.987 479.972 157.177 479.972 Q151.366 479.972 148.288 475.389 Q145.232 470.782 145.232 462.056 Q145.232 453.306 148.288 448.722 Q151.366 444.116 157.177 444.116 Z" fill="#000000" fill-rule="nonzero" fill-opacity="1"></path><path clip-path="url(#clip570)" d="M129.862 201.922 L118.056 220.371 L129.862 220.371 L129.862 201.922 M128.635 197.848 L134.515 197.848 L134.515 220.371 L139.445 220.371 L139.445 224.26 L134.515 224.26 L134.515 232.408 L129.862 232.408 L129.862 224.26 L114.26 224.26 L114.26 219.746 L128.635 197.848 Z" fill="#000000" fill-rule="nonzero" fill-opacity="1"></path><path clip-path="url(#clip570)" d="M157.177 200.927 Q153.566 200.927 151.737 204.492 Q149.931 208.033 149.931 215.163 Q149.931 222.269 151.737 225.834 Q153.566 229.376 157.177 229.376 Q160.811 229.376 162.616 225.834 Q164.445 222.269 164.445 215.163 Q164.445 208.033 162.616 204.492 Q160.811 200.927 157.177 200.927 M157.177 197.223 Q162.987 197.223 166.042 201.83 Q169.121 206.413 169.121 215.163 Q169.121 223.89 166.042 228.496 Q162.987 233.079 157.177 233.079 Q151.366 233.079 148.288 228.496 Q145.232 223.89 145.232 215.163 Q145.232 206.413 148.288 201.83 Q151.366 197.223 157.177 197.223 Z" fill="#000000" fill-rule="nonzero" fill-opacity="1"></path><path clip-path="url(#clip570)" d="M46.0847 882.021 Q46.0847 889.119 47.7079 891.856 Q49.3312 894.593 53.2461 894.593 Q56.3653 894.593 58.2114 892.556 Q60.0256 890.487 60.0256 886.955 Q60.0256 882.085 56.5881 879.157 Q53.1188 876.196 47.3897 876.196 L46.0847 876.196 L46.0847 882.021 M43.6657 870.34 L64.0042 870.34 L64.0042 876.196 L58.5933 876.196 Q61.8398 878.202 63.3994 881.194 Q64.9272 884.185 64.9272 888.514 Q64.9272 893.989 61.8716 897.235 Q58.7843 900.45 53.6281 900.45 Q47.6125 900.45 44.5569 896.439 Q41.5014 892.397 41.5014 884.408 L41.5014 876.196 L40.9285 876.196 Q36.8862 876.196 34.6901 878.87 Q32.4621 881.512 32.4621 886.318 Q32.4621 889.373 33.1941 892.27 Q33.9262 895.166 35.3903 897.84 L29.9795 897.84 Q28.7381 894.625 28.1334 891.601 Q27.4968 888.578 27.4968 885.713 Q27.4968 877.979 31.5072 874.159 Q35.5176 870.34 43.6657 870.34 Z" fill="#000000" fill-rule="nonzero" fill-opacity="1"></path><path clip-path="url(#clip570)" d="M28.3562 862.478 L28.3562 856.272 L58.275 845.132 L28.3562 833.992 L28.3562 827.785 L64.0042 841.153 L64.0042 849.11 L28.3562 862.478 Z" fill="#000000" fill-rule="nonzero" fill-opacity="1"></path><path clip-path="url(#clip570)" d="M45.7664 796.243 Q39.4007 796.243 35.8996 798.885 Q32.3984 801.495 32.3984 806.237 Q32.3984 810.948 35.8996 813.59 Q39.4007 816.2 45.7664 816.2 Q52.1003 816.2 55.6014 813.59 Q59.1026 810.948 59.1026 806.237 Q59.1026 801.495 55.6014 798.885 Q52.1003 796.243 45.7664 796.243 M59.58 790.387 Q68.683 790.387 73.1071 794.429 Q77.5631 798.471 77.5631 806.81 Q77.5631 809.898 77.0857 812.635 Q76.6401 815.372 75.6852 817.95 L69.9879 817.95 Q71.3884 815.372 72.0568 812.858 Q72.7252 810.343 72.7252 807.733 Q72.7252 801.972 69.7015 799.108 Q66.7096 796.243 60.6303 796.243 L57.7339 796.243 Q60.885 798.057 62.4446 800.89 Q64.0042 803.723 64.0042 807.67 Q64.0042 814.226 59.0071 818.237 Q54.01 822.247 45.7664 822.247 Q37.491 822.247 32.4939 818.237 Q27.4968 814.226 27.4968 807.67 Q27.4968 803.723 29.0564 800.89 Q30.616 798.057 33.7671 796.243 L28.3562 796.243 L28.3562 790.387 L59.58 790.387 Z" fill="#000000" fill-rule="nonzero" fill-opacity="1"></path><path clip-path="url(#clip570)" d="M33.8307 736.947 Q33.2578 737.933 33.0032 739.111 Q32.7167 740.257 32.7167 741.657 Q32.7167 746.622 35.9632 749.296 Q39.1779 751.938 45.2253 751.938 L64.0042 751.938 L64.0042 757.826 L28.3562 757.826 L28.3562 751.938 L33.8944 751.938 Q30.6479 750.092 29.0883 747.132 Q27.4968 744.172 27.4968 739.939 Q27.4968 739.334 27.5923 738.602 Q27.656 737.87 27.8151 736.978 L33.8307 736.947 Z" fill="#000000" fill-rule="nonzero" fill-opacity="1"></path><path clip-path="url(#clip570)" d="M44.7161 701.744 L47.5806 701.744 L47.5806 728.671 Q53.6281 728.289 56.8109 725.043 Q59.9619 721.764 59.9619 715.94 Q59.9619 712.566 59.1344 709.415 Q58.3069 706.232 56.6518 703.113 L62.1899 703.113 Q63.5267 706.264 64.227 709.574 Q64.9272 712.884 64.9272 716.29 Q64.9272 724.82 59.9619 729.817 Q54.9967 734.782 46.5303 734.782 Q37.7774 734.782 32.6531 730.072 Q27.4968 725.329 27.4968 717.308 Q27.4968 710.115 32.1438 705.946 Q36.7589 701.744 44.7161 701.744 M42.9973 707.601 Q38.1912 707.664 35.3266 710.306 Q32.4621 712.916 32.4621 717.245 Q32.4621 722.146 35.2312 725.106 Q38.0002 728.035 43.0292 728.48 L42.9973 707.601 Z" fill="#000000" fill-rule="nonzero" fill-opacity="1"></path><path clip-path="url(#clip570)" d="M18.2347 686.339 L28.3562 686.339 L28.3562 674.276 L32.9077 674.276 L32.9077 686.339 L52.2594 686.339 Q56.6199 686.339 57.8613 685.162 Q59.1026 683.952 59.1026 680.292 L59.1026 674.276 L64.0042 674.276 L64.0042 680.292 Q64.0042 687.071 61.4897 689.649 Q58.9434 692.228 52.2594 692.228 L32.9077 692.228 L32.9077 696.524 L28.3562 696.524 L28.3562 692.228 L18.2347 692.228 L18.2347 686.339 Z" fill="#000000" fill-rule="nonzero" fill-opacity="1"></path><path clip-path="url(#clip570)" d="M49.9359 667.178 L28.3562 667.178 L28.3562 661.322 L49.7131 661.322 Q54.7739 661.322 57.3202 659.349 Q59.8346 657.375 59.8346 653.429 Q59.8346 648.686 56.8109 645.949 Q53.7872 643.18 48.5673 643.18 L28.3562 643.18 L28.3562 637.323 L64.0042 637.323 L64.0042 643.18 L58.5296 643.18 Q61.7762 645.312 63.3676 648.145 Q64.9272 650.946 64.9272 654.67 Q64.9272 660.813 61.1078 663.996 Q57.2883 667.178 49.9359 667.178 M27.4968 652.442 L27.4968 652.442 Z" fill="#000000" fill-rule="nonzero" fill-opacity="1"></path><path clip-path="url(#clip570)" d="M33.8307 604.604 Q33.2578 605.59 33.0032 606.768 Q32.7167 607.914 32.7167 609.314 Q32.7167 614.279 35.9632 616.953 Q39.1779 619.595 45.2253 619.595 L64.0042 619.595 L64.0042 625.483 L28.3562 625.483 L28.3562 619.595 L33.8944 619.595 Q30.6479 617.749 29.0883 614.789 Q27.4968 611.829 27.4968 607.595 Q27.4968 606.991 27.5923 606.259 Q27.656 605.527 27.8151 604.635 L33.8307 604.604 Z" fill="#000000" fill-rule="nonzero" fill-opacity="1"></path><path clip-path="url(#clip570)" d="M42.4881 569.974 L64.0042 569.974 L64.0042 575.831 L42.679 575.831 Q37.6183 575.831 35.1038 577.804 Q32.5894 579.777 32.5894 583.724 Q32.5894 588.467 35.6131 591.204 Q38.6368 593.941 43.8567 593.941 L64.0042 593.941 L64.0042 599.829 L28.3562 599.829 L28.3562 593.941 L33.8944 593.941 Q30.6797 591.84 29.0883 589.008 Q27.4968 586.143 27.4968 582.419 Q27.4968 576.276 31.3163 573.125 Q35.1038 569.974 42.4881 569.974 Z" fill="#000000" fill-rule="nonzero" fill-opacity="1"></path><polyline clip-path="url(#clip572)" style="stroke:#009af9; stroke-linecap:round; stroke-linejoin:round; stroke-width:4; stroke-opacity:1; fill:none" points="265.903,1214.06 269.963,1214.21 274.024,1214.15 278.084,1214.37 282.144,1213.29 286.204,1214.89 290.265,1214.16 294.325,1215.13 298.385,1214.29 302.445,1215.07 306.506,1214.06 310.566,1214.17 314.626,1217 318.687,1211.96 322.747,1212.06 326.807,1211.74 330.867,1211.52 334.928,1211.7 338.988,1215.58 343.048,1211.66 347.108,1211.67 351.169,1212.56 355.229,1211.9 359.289,1212.31 363.349,1212.31 367.41,1212.77 371.47,1211.34 375.53,1212.4 379.59,1212.16 383.651,1211.2 387.711,1212.2 391.771,1206.54 395.831,1212.07 399.892,1212.01 403.952,1211.35 408.012,1213.48 412.073,1212.85 416.133,1211.62 420.193,1211.93 424.253,1210.86 428.314,1213.86 432.374,1210.97 436.434,1194.93 440.494,1166.06 444.555,1384.24 448.615,1213.45 452.675,1173.76 456.735,979.065 460.796,1070.45 464.856,1314.95 468.916,1214.2 472.976,1213.91 477.037,1186.35 481.097,1198.73 485.157,1189.96 489.217,1276.95 493.278,1176.28 497.338,1188.05 501.398,1088.2 505.459,1173.47 509.519,799.771 513.579,1349.11 517.639,1213.9 521.7,1209.02 525.76,1212.9 529.82,1203.46 533.88,1226.69 537.941,1192.83 542.001,1198.49 546.061,926.622 550.121,815.544 554.182,705.09 558.242,393.708 562.302,962.999 566.362,1202.97 570.423,1199.84 574.483,1211.38 578.543,1212.24 582.604,1211.5 586.664,1211.96 590.724,1211.57 594.784,1199.26 598.845,1117.84 602.905,935.965 606.965,950.292 611.025,833.006 615.086,1001.55 619.146,693.201 623.206,1154.78 627.266,1179.33 631.327,593.595 635.387,770.406 639.447,731.284 643.507,1169.84 647.568,885.42 651.628,906.135 655.688,494.692 659.748,521.833 663.809,798.548 667.869,921.195 671.929,656.386 675.99,466.775 680.05,486.279 684.11,483.648 688.17,553.5 692.231,511.093 696.291,547.479 700.351,526.101 704.411,466.269 708.472,809.217 712.532,449.274 716.592,415.273 720.652,452.939 724.713,805.857 728.773,460.015 732.833,526.768 736.893,607.845 740.954,545.392 745.014,527.863 749.074,539.888 753.135,459.633 757.195,419.385 761.255,425.996 765.315,502.814 769.376,474.404 773.436,618.316 777.496,779.364 781.556,831.159 785.617,790.927 789.677,815.146 793.737,697.108 797.797,695.021 801.858,718.897 805.918,492.073 809.978,486.428 814.038,652.659 818.099,637.251 822.159,477.166 826.219,492.004 830.279,494.49 834.34,495.798 838.4,642.397 842.46,480.752 846.521,503.451 850.581,639.901 854.641,593.074 858.701,604.548 862.762,550.16 866.822,637.472 870.882,638.362 874.942,442.776 879.003,432.926 883.063,437.645 887.123,572.489 891.183,631.075 895.244,488.921 899.304,493.737 903.364,655.423 907.424,619.02 911.485,469.647 915.545,792.602 919.605,677.246 923.666,632.279 927.726,610.284 931.786,466.685 935.846,669.53 939.907,518.082 943.967,678.089 948.027,503.859 952.087,692.865 956.148,789.514 960.208,627.223 964.268,656.619 968.328,593.102 972.389,594.439 976.449,479.275 980.509,604.744 984.569,444.036 988.63,586.707 992.69,658.017 996.75,617.341 1000.81,466.215 1004.87,480.702 1008.93,632.646 1012.99,491.703 1017.05,760.379 1021.11,577.978 1025.17,640.381 1029.23,460.481 1033.29,416.657 1037.35,420.126 1041.41,667.89 1045.47,464.999 1049.53,473.332 1053.59,671.766 1057.65,766.583 1061.71,431.866 1065.77,476.801 1069.83,408.829 1073.9,450.161 1077.96,712.488 1082.02,524.038 1086.08,668.775 1090.14,351.709 1094.2,953.388 1098.26,770.171 1102.32,612.683 1106.38,660.32 1110.44,799.852 1114.5,468.607 1118.56,470.107 1122.62,463.133 1126.68,795.195 1130.74,781.031 1134.8,507.886 1138.86,849.53 1142.92,1091.24 1146.98,1039.42 1151.04,974.743 1155.1,579.703 1159.16,780.364 1163.22,486.473 1167.28,481.704 1171.34,789.575 1175.4,796.971 1179.46,785.18 1183.52,819.707 1187.58,752.844 1191.64,780.734 1195.7,794.084 1199.76,816.842 1203.82,796.952 1207.88,790.301 1211.94,974.702 1216,597.75 1220.06,808.196 1224.12,630.624 1228.19,643.259 1232.25,763.908 1236.31,968.488 1240.37,899.849 1244.43,912.504 1248.49,745.753 1252.55,766.689 1256.61,764.16 1260.67,606.351 1264.73,914.332 1268.79,951.176 1272.85,766.373 1276.91,769.717 1280.97,490.561 1285.03,784.21 1289.09,823.053 1293.15,781.98 1297.21,1025.36 1301.27,842.393 1305.33,552.631 1309.39,759.278 1313.45,903.347 1317.51,801.439 1321.57,789.114 1325.63,540.026 1329.69,865.02 1333.75,782.295 1337.81,784.249 1341.87,531.773 1345.93,507.202 1349.99,811.992 1354.05,759.342 1358.11,815.106 1362.17,863.254 1366.23,666.92 1370.29,856.627 1374.35,626.175 1378.41,903.789 1382.48,705.724 1386.54,732.995 1390.6,731.203 1394.66,745.565 1398.72,713.357 1402.78,700.938 1406.84,822.6 1410.9,806.12 1414.96,814.116 1419.02,1009.85 1423.08,856.052 1427.14,650.398 1431.2,661.783 1435.26,793.957 1439.32,966.804 1443.38,795.215 1447.44,1020.43 1451.5,930.038 1455.56,825.02 1459.62,1003.71 1463.68,720.391 1467.74,781.274 1471.8,805.091 1475.86,805.191 1479.92,948.528 1483.98,840.479 1488.04,758.855 1492.1,908.05 1496.16,763.383 1500.22,775.03 1504.28,780.025 1508.34,543.325 1512.4,525.62 1516.46,998.952 1520.52,680.117 1524.58,686.047 1528.64,680.713 1532.7,615.49 1536.77,651.434 1540.83,908.544 1544.89,1030.35 1548.95,764.158 1553.01,473.914 1557.07,770.754 1561.13,773.073 1565.19,781.598 1569.25,791.067 1573.31,919.11 1577.37,514.318 1581.43,482.609 1585.49,900.699 1589.55,705.78 1593.61,983.937 1597.67,659.044 1601.73,862.717 1605.79,879.765 1609.85,753.932 1613.91,836.352 1617.97,513.205 1622.03,699.852 1626.09,564.563 1630.15,610.88 1634.21,602.008 1638.27,526.557 1642.33,622.001 1646.39,565.485 1650.45,807.966 1654.51,486.535 1658.57,756.957 1662.63,751.65 1666.69,514.047 1670.75,762.202 1674.81,725.62 1678.87,847.457 1682.93,776.504 1686.99,946.503 1691.06,873.875 1695.12,1097.5 1699.18,927.544 1703.24,730.181 1707.3,546.883 1711.36,527.465 1715.42,746.408 1719.48,879.162 1723.54,832.099 1727.6,746.237 1731.66,407.841 1735.72,347.696 1739.78,780.33 1743.84,710.767 1747.9,674.393 1751.96,793.424 1756.02,849.55 1760.08,471.983 1764.14,1067.75 1768.2,809.284 1772.26,718.031 1776.32,756.856 1780.38,937.147 1784.44,752.135 1788.5,781.564 1792.56,490.584 1796.62,1012.89 1800.68,1166.56 1804.74,500.908 1808.8,486.3 1812.86,466.207 1816.92,514.252 1820.98,541.126 1825.04,514.641 1829.1,528.246 1833.16,522.046 1837.22,907.654 1841.28,678.395 1845.34,679.198 1849.41,628.995 1853.47,721.472 1857.53,583.574 1861.59,544.511 1865.65,595.887 1869.71,523.187 1873.77,590.167 1877.83,555.39 1881.89,917.247 1885.95,746.315 1890.01,805.599 1894.07,812.296 1898.13,758.547 1902.19,534.322 1906.25,545.103 1910.31,534.932 1914.37,762.015 1918.43,578.603 1922.49,817.829 1926.55,950.197 1930.61,1022.41 1934.67,661.203 1938.73,86.1857 1942.79,969.808 1946.85,941.486 1950.91,1011.63 1954.97,1092.47 1959.03,1123.65 1963.09,1066.41 1967.15,893.11 1971.21,835.419 1975.27,1146.61 1979.33,1116.1 1983.39,1191.93 1987.45,1044.76 1991.51,1161.83 1995.57,1132.89 1999.63,1052.13 2003.7,847.368 2007.76,1222.8 2011.82,1291.31 2015.88,1196.24 2019.94,1205.71 2024,1212.25 2028.06,1208.62 2032.12,1212.43 2036.18,1212.55 2040.24,1214.09 2044.3,1211.14 2048.36,1210.94 2052.42,1213.95 2056.48,1213.9 2060.54,1214.68 2064.6,1210.57 2068.66,1211.89 2072.72,1206.66 2076.78,1207.17 2080.84,1213.72 2084.9,1184.51 2088.96,916.948 2093.02,934.406 2097.08,901.726 2101.14,1217.3 2105.2,811.283 2109.26,1046.61 2113.32,1187.9 2117.38,1159.24 2121.44,1183.85 2125.5,1192.64 2129.56,1215.99 2133.62,1203 2137.68,1103.11 2141.74,1198.5 2145.8,1204.88 2149.86,1211.75 2153.92,1162.86 2157.99,1242.1 2162.05,1104.19 2166.11,1189.26 2170.17,1019.12 2174.23,1013.84 2178.29,1177.07 2182.35,1192.36 2186.41,1189.67 2190.47,1171.13 2194.53,799.764 2198.59,703.398 2202.65,633.328 2206.71,659.675 2210.77,935.874 2214.83,653.601 2218.89,614.206 2222.95,1348.86 2227.01,1151.75 2231.07,404.6 2235.13,419.326 2239.19,400.415 2243.25,359.071 2247.31,392.883 2251.37,808.141 2255.43,1021.28 2259.49,1172.13 2263.55,1239.23 2267.61,1133.49 2271.67,1276.99 2275.73,1246.55 2279.79,1011.96 2283.85,829.152 2287.91,619.666 2291.97,667.348 "></polyline>
<path clip-path="url(#clip570)" d="M276.709 196.789 L647.05 196.789 L647.05 93.1086 L276.709 93.1086  Z" fill="#ffffff" fill-rule="evenodd" fill-opacity="1"></path>
<polyline clip-path="url(#clip570)" style="stroke:#000000; stroke-linecap:round; stroke-linejoin:round; stroke-width:4; stroke-opacity:1; fill:none" points="276.709,196.789 647.05,196.789 647.05,93.1086 276.709,93.1086 276.709,196.789 "></polyline>
<polyline clip-path="url(#clip570)" style="stroke:#009af9; stroke-linecap:round; stroke-linejoin:round; stroke-width:4; stroke-opacity:1; fill:none" points="300.571,144.949 443.747,144.949 "></polyline>
<path clip-path="url(#clip570)" d="M482.795 140.284 Q482.077 139.868 481.221 139.682 Q480.387 139.474 479.369 139.474 Q475.758 139.474 473.813 141.835 Q471.892 144.173 471.892 148.571 L471.892 162.229 L467.61 162.229 L467.61 136.303 L471.892 136.303 L471.892 140.331 Q473.235 137.969 475.387 136.835 Q477.54 135.678 480.619 135.678 Q481.059 135.678 481.591 135.747 Q482.123 135.794 482.772 135.909 L482.795 140.284 Z" fill="#000000" fill-rule="nonzero" fill-opacity="1"></path><path clip-path="url(#clip570)" d="M508.397 148.201 L508.397 150.284 L488.813 150.284 Q489.091 154.682 491.452 156.997 Q493.836 159.289 498.072 159.289 Q500.526 159.289 502.818 158.687 Q505.133 158.085 507.401 156.881 L507.401 160.909 Q505.109 161.881 502.702 162.391 Q500.295 162.9 497.818 162.9 Q491.614 162.9 487.98 159.289 Q484.369 155.678 484.369 149.52 Q484.369 143.155 487.795 139.428 Q491.244 135.678 497.077 135.678 Q502.309 135.678 505.341 139.057 Q508.397 142.414 508.397 148.201 M504.137 146.951 Q504.091 143.456 502.17 141.372 Q500.272 139.289 497.123 139.289 Q493.559 139.289 491.406 141.303 Q489.276 143.317 488.952 146.974 L504.137 146.951 Z" fill="#000000" fill-rule="nonzero" fill-opacity="1"></path><path clip-path="url(#clip570)" d="M512.91 136.303 L517.17 136.303 L522.494 156.534 L527.795 136.303 L532.818 136.303 L538.142 156.534 L543.443 136.303 L547.702 136.303 L540.919 162.229 L535.896 162.229 L530.318 140.979 L524.716 162.229 L519.693 162.229 L512.91 136.303 Z" fill="#000000" fill-rule="nonzero" fill-opacity="1"></path><path clip-path="url(#clip570)" d="M565.942 149.196 Q560.78 149.196 558.79 150.377 Q556.799 151.557 556.799 154.405 Q556.799 156.673 558.28 158.016 Q559.785 159.335 562.355 159.335 Q565.896 159.335 568.026 156.835 Q570.179 154.312 570.179 150.145 L570.179 149.196 L565.942 149.196 M574.438 147.437 L574.438 162.229 L570.179 162.229 L570.179 158.293 Q568.72 160.655 566.544 161.789 Q564.368 162.9 561.22 162.9 Q557.239 162.9 554.878 160.678 Q552.54 158.432 552.54 154.682 Q552.54 150.307 555.456 148.085 Q558.396 145.863 564.206 145.863 L570.179 145.863 L570.179 145.446 Q570.179 142.507 568.234 140.909 Q566.313 139.289 562.818 139.289 Q560.595 139.289 558.489 139.821 Q556.382 140.354 554.438 141.419 L554.438 137.483 Q556.776 136.581 558.975 136.141 Q561.174 135.678 563.257 135.678 Q568.882 135.678 571.66 138.594 Q574.438 141.511 574.438 147.437 Z" fill="#000000" fill-rule="nonzero" fill-opacity="1"></path><path clip-path="url(#clip570)" d="M598.234 140.284 Q597.516 139.868 596.66 139.682 Q595.827 139.474 594.808 139.474 Q591.197 139.474 589.253 141.835 Q587.331 144.173 587.331 148.571 L587.331 162.229 L583.049 162.229 L583.049 136.303 L587.331 136.303 L587.331 140.331 Q588.674 137.969 590.827 136.835 Q592.979 135.678 596.058 135.678 Q596.498 135.678 597.03 135.747 Q597.563 135.794 598.211 135.909 L598.234 140.284 Z" fill="#000000" fill-rule="nonzero" fill-opacity="1"></path><path clip-path="url(#clip570)" d="M618.928 140.238 L618.928 126.21 L623.188 126.21 L623.188 162.229 L618.928 162.229 L618.928 158.34 Q617.586 160.655 615.526 161.789 Q613.489 162.9 610.618 162.9 Q605.919 162.9 602.956 159.15 Q600.016 155.4 600.016 149.289 Q600.016 143.178 602.956 139.428 Q605.919 135.678 610.618 135.678 Q613.489 135.678 615.526 136.812 Q617.586 137.923 618.928 140.238 M604.415 149.289 Q604.415 153.988 606.336 156.673 Q608.28 159.335 611.66 159.335 Q615.039 159.335 616.984 156.673 Q618.928 153.988 618.928 149.289 Q618.928 144.59 616.984 141.928 Q615.039 139.243 611.66 139.243 Q608.28 139.243 606.336 141.928 Q604.415 144.59 604.415 149.289 Z" fill="#000000" fill-rule="nonzero" fill-opacity="1"></path></svg>