<svg xmlns="http://www.w3.org/2000/svg" xmlns:xlink="http://www.w3.org/1999/xlink" width="600" height="400" viewBox="0 0 2400 1600">
<defs>
  <clipPath id="clip150">
    <rect x="0" y="0" width="2400" height="1600"></rect>
  </clipPath>
</defs>
<path clip-path="url(#clip150)" d="M0 1600 L2400 1600 L2400 0 L0 0  Z" fill="#ffffff" fill-rule="evenodd" fill-opacity="1"></path>
<defs>
  <clipPath id="clip151">
    <rect x="480" y="0" width="1681" height="1600"></rect>
  </clipPath>
</defs>
<path clip-path="url(#clip150)" d="M212.459 1410.9 L2352.76 1410.9 L2352.76 47.2441 L212.459 47.2441  Z" fill="#ffffff" fill-rule="evenodd" fill-opacity="1"></path>
<defs>
  <clipPath id="clip152">
    <rect x="212" y="47" width="2141" height="1365"></rect>
  </clipPath>
</defs>
<polyline clip-path="url(#clip152)" style="stroke:#000000; stroke-linecap:round; stroke-linejoin:round; stroke-width:2; stroke-opacity:0.1; fill:none" points="273.033,1410.9 273.033,47.2441 "></polyline>
<polyline clip-path="url(#clip152)" style="stroke:#000000; stroke-linecap:round; stroke-linejoin:round; stroke-width:2; stroke-opacity:0.1; fill:none" points="726.326,1410.9 726.326,47.2441 "></polyline>
<polyline clip-path="url(#clip152)" style="stroke:#000000; stroke-linecap:round; stroke-linejoin:round; stroke-width:2; stroke-opacity:0.1; fill:none" points="1179.62,1410.9 1179.62,47.2441 "></polyline>
<polyline clip-path="url(#clip152)" style="stroke:#000000; stroke-linecap:round; stroke-linejoin:round; stroke-width:2; stroke-opacity:0.1; fill:none" points="1632.91,1410.9 1632.91,47.2441 "></polyline>
<polyline clip-path="url(#clip152)" style="stroke:#000000; stroke-linecap:round; stroke-linejoin:round; stroke-width:2; stroke-opacity:0.1; fill:none" points="2086.2,1410.9 2086.2,47.2441 "></polyline>
<polyline clip-path="url(#clip150)" style="stroke:#000000; stroke-linecap:round; stroke-linejoin:round; stroke-width:4; stroke-opacity:1; fill:none" points="212.459,1410.9 2352.76,1410.9 "></polyline>
<polyline clip-path="url(#clip150)" style="stroke:#000000; stroke-linecap:round; stroke-linejoin:round; stroke-width:4; stroke-opacity:1; fill:none" points="273.033,1410.9 273.033,1392 "></polyline>
<polyline clip-path="url(#clip150)" style="stroke:#000000; stroke-linecap:round; stroke-linejoin:round; stroke-width:4; stroke-opacity:1; fill:none" points="726.326,1410.9 726.326,1392 "></polyline>
<polyline clip-path="url(#clip150)" style="stroke:#000000; stroke-linecap:round; stroke-linejoin:round; stroke-width:4; stroke-opacity:1; fill:none" points="1179.62,1410.9 1179.62,1392 "></polyline>
<polyline clip-path="url(#clip150)" style="stroke:#000000; stroke-linecap:round; stroke-linejoin:round; stroke-width:4; stroke-opacity:1; fill:none" points="1632.91,1410.9 1632.91,1392 "></polyline>
<polyline clip-path="url(#clip150)" style="stroke:#000000; stroke-linecap:round; stroke-linejoin:round; stroke-width:4; stroke-opacity:1; fill:none" points="2086.2,1410.9 2086.2,1392 "></polyline>
<path clip-path="url(#clip150)" d="M273.033 1441.82 Q269.422 1441.82 267.594 1445.38 Q265.788 1448.92 265.788 1456.05 Q265.788 1463.16 267.594 1466.72 Q269.422 1470.26 273.033 1470.26 Q276.668 1470.26 278.473 1466.72 Q280.302 1463.16 280.302 1456.05 Q280.302 1448.92 278.473 1445.38 Q276.668 1441.82 273.033 1441.82 M273.033 1438.11 Q278.843 1438.11 281.899 1442.72 Q284.978 1447.3 284.978 1456.05 Q284.978 1464.78 281.899 1469.38 Q278.843 1473.97 273.033 1473.97 Q267.223 1473.97 264.145 1469.38 Q261.089 1464.78 261.089 1456.05 Q261.089 1447.3 264.145 1442.72 Q267.223 1438.11 273.033 1438.11 Z" fill="#000000" fill-rule="nonzero" fill-opacity="1"></path><path clip-path="url(#clip150)" d="M619.302 1454.4 L637.659 1454.4 L637.659 1458.33 L623.585 1458.33 L623.585 1466.8 Q624.603 1466.46 625.622 1466.29 Q626.64 1466.11 627.659 1466.11 Q633.446 1466.11 636.825 1469.28 Q640.205 1472.45 640.205 1477.87 Q640.205 1483.45 636.733 1486.55 Q633.26 1489.63 626.941 1489.63 Q624.765 1489.63 622.497 1489.26 Q620.251 1488.89 617.844 1488.15 L617.844 1483.45 Q619.927 1484.58 622.149 1485.14 Q624.372 1485.69 626.848 1485.69 Q630.853 1485.69 633.191 1483.59 Q635.529 1481.48 635.529 1477.87 Q635.529 1474.26 633.191 1472.15 Q630.853 1470.04 626.848 1470.04 Q624.974 1470.04 623.099 1470.46 Q621.247 1470.88 619.302 1471.76 L619.302 1454.4 Z" fill="#000000" fill-rule="nonzero" fill-opacity="1"></path><path clip-path="url(#clip150)" d="M649.418 1483.08 L654.302 1483.08 L654.302 1488.96 L649.418 1488.96 L649.418 1483.08 Z" fill="#000000" fill-rule="nonzero" fill-opacity="1"></path><path clip-path="url(#clip150)" d="M674.487 1457.48 Q670.876 1457.48 669.047 1461.04 Q667.242 1464.58 667.242 1471.71 Q667.242 1478.82 669.047 1482.38 Q670.876 1485.92 674.487 1485.92 Q678.121 1485.92 679.927 1482.38 Q681.756 1478.82 681.756 1471.71 Q681.756 1464.58 679.927 1461.04 Q678.121 1457.48 674.487 1457.48 M674.487 1453.77 Q680.297 1453.77 683.353 1458.38 Q686.432 1462.96 686.432 1471.71 Q686.432 1480.44 683.353 1485.04 Q680.297 1489.63 674.487 1489.63 Q668.677 1489.63 665.598 1485.04 Q662.543 1480.44 662.543 1471.71 Q662.543 1462.96 665.598 1458.38 Q668.677 1453.77 674.487 1453.77 Z" fill="#000000" fill-rule="nonzero" fill-opacity="1"></path><path clip-path="url(#clip150)" d="M704.649 1457.48 Q701.038 1457.48 699.209 1461.04 Q697.404 1464.58 697.404 1471.71 Q697.404 1478.82 699.209 1482.38 Q701.038 1485.92 704.649 1485.92 Q708.283 1485.92 710.089 1482.38 Q711.917 1478.82 711.917 1471.71 Q711.917 1464.58 710.089 1461.04 Q708.283 1457.48 704.649 1457.48 M704.649 1453.77 Q710.459 1453.77 713.515 1458.38 Q716.593 1462.96 716.593 1471.71 Q716.593 1480.44 713.515 1485.04 Q710.459 1489.63 704.649 1489.63 Q698.839 1489.63 695.76 1485.04 Q692.705 1480.44 692.705 1471.71 Q692.705 1462.96 695.76 1458.38 Q698.839 1453.77 704.649 1453.77 Z" fill="#000000" fill-rule="nonzero" fill-opacity="1"></path><path clip-path="url(#clip150)" d="M752.982 1463.49 L742.403 1474.12 L752.982 1484.7 L750.227 1487.5 L739.603 1476.87 L728.978 1487.5 L726.246 1484.7 L736.802 1474.12 L726.246 1463.49 L728.978 1460.69 L739.603 1471.32 L750.227 1460.69 L752.982 1463.49 Z" fill="#000000" fill-rule="nonzero" fill-opacity="1"></path><path clip-path="url(#clip150)" d="M765.343 1485.02 L772.982 1485.02 L772.982 1458.66 L764.672 1460.32 L764.672 1456.06 L772.936 1454.4 L777.612 1454.4 L777.612 1485.02 L785.25 1485.02 L785.25 1488.96 L765.343 1488.96 L765.343 1485.02 Z" fill="#000000" fill-rule="nonzero" fill-opacity="1"></path><path clip-path="url(#clip150)" d="M804.695 1457.48 Q801.084 1457.48 799.255 1461.04 Q797.449 1464.58 797.449 1471.71 Q797.449 1478.82 799.255 1482.38 Q801.084 1485.92 804.695 1485.92 Q808.329 1485.92 810.135 1482.38 Q811.963 1478.82 811.963 1471.71 Q811.963 1464.58 810.135 1461.04 Q808.329 1457.48 804.695 1457.48 M804.695 1453.77 Q810.505 1453.77 813.56 1458.38 Q816.639 1462.96 816.639 1471.71 Q816.639 1480.44 813.56 1485.04 Q810.505 1489.63 804.695 1489.63 Q798.885 1489.63 795.806 1485.04 Q792.75 1480.44 792.75 1471.71 Q792.75 1462.96 795.806 1458.38 Q798.885 1453.77 804.695 1453.77 Z" fill="#000000" fill-rule="nonzero" fill-opacity="1"></path><path clip-path="url(#clip150)" d="M817.824 1433.47 L832.739 1433.47 L832.739 1436.66 L821.303 1436.66 L821.303 1443.55 Q822.131 1443.27 822.959 1443.13 Q823.786 1442.98 824.614 1442.98 Q829.316 1442.98 832.062 1445.56 Q834.807 1448.14 834.807 1452.54 Q834.807 1457.07 831.986 1459.59 Q829.165 1462.09 824.031 1462.09 Q822.263 1462.09 820.42 1461.79 Q818.595 1461.49 816.639 1460.89 L816.639 1457.07 Q818.332 1457.99 820.137 1458.44 Q821.943 1458.89 823.955 1458.89 Q827.209 1458.89 829.109 1457.18 Q831.008 1455.47 831.008 1452.54 Q831.008 1449.6 829.109 1447.89 Q827.209 1446.18 823.955 1446.18 Q822.432 1446.18 820.909 1446.52 Q819.404 1446.86 817.824 1447.57 L817.824 1433.47 Z" fill="#000000" fill-rule="nonzero" fill-opacity="1"></path><path clip-path="url(#clip150)" d="M1071.97 1485.02 L1079.61 1485.02 L1079.61 1458.66 L1071.3 1460.32 L1071.3 1456.06 L1079.56 1454.4 L1084.24 1454.4 L1084.24 1485.02 L1091.88 1485.02 L1091.88 1488.96 L1071.97 1488.96 L1071.97 1485.02 Z" fill="#000000" fill-rule="nonzero" fill-opacity="1"></path><path clip-path="url(#clip150)" d="M1101.32 1483.08 L1106.21 1483.08 L1106.21 1488.96 L1101.32 1488.96 L1101.32 1483.08 Z" fill="#000000" fill-rule="nonzero" fill-opacity="1"></path><path clip-path="url(#clip150)" d="M1126.39 1457.48 Q1122.78 1457.48 1120.95 1461.04 Q1119.15 1464.58 1119.15 1471.71 Q1119.15 1478.82 1120.95 1482.38 Q1122.78 1485.92 1126.39 1485.92 Q1130.03 1485.92 1131.83 1482.38 Q1133.66 1478.82 1133.66 1471.71 Q1133.66 1464.58 1131.83 1461.04 Q1130.03 1457.48 1126.39 1457.48 M1126.39 1453.77 Q1132.2 1453.77 1135.26 1458.38 Q1138.34 1462.96 1138.34 1471.71 Q1138.34 1480.44 1135.26 1485.04 Q1132.2 1489.63 1126.39 1489.63 Q1120.58 1489.63 1117.5 1485.04 Q1114.45 1480.44 1114.45 1471.71 Q1114.45 1462.96 1117.5 1458.38 Q1120.58 1453.77 1126.39 1453.77 Z" fill="#000000" fill-rule="nonzero" fill-opacity="1"></path><path clip-path="url(#clip150)" d="M1156.55 1457.48 Q1152.94 1457.48 1151.11 1461.04 Q1149.31 1464.58 1149.31 1471.71 Q1149.31 1478.82 1151.11 1482.38 Q1152.94 1485.92 1156.55 1485.92 Q1160.19 1485.92 1161.99 1482.38 Q1163.82 1478.82 1163.82 1471.71 Q1163.82 1464.58 1161.99 1461.04 Q1160.19 1457.48 1156.55 1457.48 M1156.55 1453.77 Q1162.36 1453.77 1165.42 1458.38 Q1168.5 1462.96 1168.5 1471.71 Q1168.5 1480.44 1165.42 1485.04 Q1162.36 1489.63 1156.55 1489.63 Q1150.74 1489.63 1147.67 1485.04 Q1144.61 1480.44 1144.61 1471.71 Q1144.61 1462.96 1147.67 1458.38 Q1150.74 1453.77 1156.55 1453.77 Z" fill="#000000" fill-rule="nonzero" fill-opacity="1"></path><path clip-path="url(#clip150)" d="M1204.89 1463.49 L1194.31 1474.12 L1204.89 1484.7 L1202.13 1487.5 L1191.51 1476.87 L1180.88 1487.5 L1178.15 1484.7 L1188.71 1474.12 L1178.15 1463.49 L1180.88 1460.69 L1191.51 1471.32 L1202.13 1460.69 L1204.89 1463.49 Z" fill="#000000" fill-rule="nonzero" fill-opacity="1"></path><path clip-path="url(#clip150)" d="M1217.25 1485.02 L1224.89 1485.02 L1224.89 1458.66 L1216.58 1460.32 L1216.58 1456.06 L1224.84 1454.4 L1229.52 1454.4 L1229.52 1485.02 L1237.16 1485.02 L1237.16 1488.96 L1217.25 1488.96 L1217.25 1485.02 Z" fill="#000000" fill-rule="nonzero" fill-opacity="1"></path><path clip-path="url(#clip150)" d="M1256.6 1457.48 Q1252.99 1457.48 1251.16 1461.04 Q1249.36 1464.58 1249.36 1471.71 Q1249.36 1478.82 1251.16 1482.38 Q1252.99 1485.92 1256.6 1485.92 Q1260.23 1485.92 1262.04 1482.38 Q1263.87 1478.82 1263.87 1471.71 Q1263.87 1464.58 1262.04 1461.04 Q1260.23 1457.48 1256.6 1457.48 M1256.6 1453.77 Q1262.41 1453.77 1265.47 1458.38 Q1268.54 1462.96 1268.54 1471.71 Q1268.54 1480.44 1265.47 1485.04 Q1262.41 1489.63 1256.6 1489.63 Q1250.79 1489.63 1247.71 1485.04 Q1244.66 1480.44 1244.66 1471.71 Q1244.66 1462.96 1247.71 1458.38 Q1250.79 1453.77 1256.6 1453.77 Z" fill="#000000" fill-rule="nonzero" fill-opacity="1"></path><path clip-path="url(#clip150)" d="M1278.57 1445.99 Q1276.01 1445.99 1274.51 1447.74 Q1273.02 1449.49 1273.02 1452.54 Q1273.02 1455.57 1274.51 1457.33 Q1276.01 1459.08 1278.57 1459.08 Q1281.13 1459.08 1282.61 1457.33 Q1284.12 1455.57 1284.12 1452.54 Q1284.12 1449.49 1282.61 1447.74 Q1281.13 1445.99 1278.57 1445.99 M1286.11 1434.09 L1286.11 1437.55 Q1284.68 1436.87 1283.21 1436.51 Q1281.77 1436.16 1280.34 1436.16 Q1276.58 1436.16 1274.58 1438.69 Q1272.61 1441.23 1272.33 1446.37 Q1273.43 1444.73 1275.11 1443.87 Q1276.78 1442.98 1278.8 1442.98 Q1283.03 1442.98 1285.47 1445.56 Q1287.94 1448.12 1287.94 1452.54 Q1287.94 1456.86 1285.38 1459.48 Q1282.82 1462.09 1278.57 1462.09 Q1273.7 1462.09 1271.12 1458.37 Q1268.54 1454.62 1268.54 1447.53 Q1268.54 1440.88 1271.7 1436.93 Q1274.86 1432.96 1280.19 1432.96 Q1281.62 1432.96 1283.06 1433.24 Q1284.53 1433.52 1286.11 1434.09 Z" fill="#000000" fill-rule="nonzero" fill-opacity="1"></path><path clip-path="url(#clip150)" d="M1525.26 1485.02 L1532.9 1485.02 L1532.9 1458.66 L1524.59 1460.32 L1524.59 1456.06 L1532.86 1454.4 L1537.53 1454.4 L1537.53 1485.02 L1545.17 1485.02 L1545.17 1488.96 L1525.26 1488.96 L1525.26 1485.02 Z" fill="#000000" fill-rule="nonzero" fill-opacity="1"></path><path clip-path="url(#clip150)" d="M1554.62 1483.08 L1559.5 1483.08 L1559.5 1488.96 L1554.62 1488.96 L1554.62 1483.08 Z" fill="#000000" fill-rule="nonzero" fill-opacity="1"></path><path clip-path="url(#clip150)" d="M1569.73 1454.4 L1588.09 1454.4 L1588.09 1458.33 L1574.01 1458.33 L1574.01 1466.8 Q1575.03 1466.46 1576.05 1466.29 Q1577.07 1466.11 1578.09 1466.11 Q1583.87 1466.11 1587.25 1469.28 Q1590.63 1472.45 1590.63 1477.87 Q1590.63 1483.45 1587.16 1486.55 Q1583.69 1489.63 1577.37 1489.63 Q1575.19 1489.63 1572.93 1489.26 Q1570.68 1488.89 1568.27 1488.15 L1568.27 1483.45 Q1570.36 1484.58 1572.58 1485.14 Q1574.8 1485.69 1577.28 1485.69 Q1581.28 1485.69 1583.62 1483.59 Q1585.96 1481.48 1585.96 1477.87 Q1585.96 1474.26 1583.62 1472.15 Q1581.28 1470.04 1577.28 1470.04 Q1575.4 1470.04 1573.53 1470.46 Q1571.68 1470.88 1569.73 1471.76 L1569.73 1454.4 Z" fill="#000000" fill-rule="nonzero" fill-opacity="1"></path><path clip-path="url(#clip150)" d="M1609.85 1457.48 Q1606.24 1457.48 1604.41 1461.04 Q1602.6 1464.58 1602.6 1471.71 Q1602.6 1478.82 1604.41 1482.38 Q1606.24 1485.92 1609.85 1485.92 Q1613.48 1485.92 1615.29 1482.38 Q1617.12 1478.82 1617.12 1471.71 Q1617.12 1464.58 1615.29 1461.04 Q1613.48 1457.48 1609.85 1457.48 M1609.85 1453.77 Q1615.66 1453.77 1618.71 1458.38 Q1621.79 1462.96 1621.79 1471.71 Q1621.79 1480.44 1618.71 1485.04 Q1615.66 1489.63 1609.85 1489.63 Q1604.04 1489.63 1600.96 1485.04 Q1597.9 1480.44 1597.9 1471.71 Q1597.9 1462.96 1600.96 1458.38 Q1604.04 1453.77 1609.85 1453.77 Z" fill="#000000" fill-rule="nonzero" fill-opacity="1"></path><path clip-path="url(#clip150)" d="M1658.18 1463.49 L1647.6 1474.12 L1658.18 1484.7 L1655.43 1487.5 L1644.8 1476.87 L1634.18 1487.5 L1631.44 1484.7 L1642 1474.12 L1631.44 1463.49 L1634.18 1460.69 L1644.8 1471.32 L1655.43 1460.69 L1658.18 1463.49 Z" fill="#000000" fill-rule="nonzero" fill-opacity="1"></path><path clip-path="url(#clip150)" d="M1670.54 1485.02 L1678.18 1485.02 L1678.18 1458.66 L1669.87 1460.32 L1669.87 1456.06 L1678.13 1454.4 L1682.81 1454.4 L1682.81 1485.02 L1690.45 1485.02 L1690.45 1488.96 L1670.54 1488.96 L1670.54 1485.02 Z" fill="#000000" fill-rule="nonzero" fill-opacity="1"></path><path clip-path="url(#clip150)" d="M1709.89 1457.48 Q1706.28 1457.48 1704.45 1461.04 Q1702.65 1464.58 1702.65 1471.71 Q1702.65 1478.82 1704.45 1482.38 Q1706.28 1485.92 1709.89 1485.92 Q1713.53 1485.92 1715.33 1482.38 Q1717.16 1478.82 1717.16 1471.71 Q1717.16 1464.58 1715.33 1461.04 Q1713.53 1457.48 1709.89 1457.48 M1709.89 1453.77 Q1715.7 1453.77 1718.76 1458.38 Q1721.84 1462.96 1721.84 1471.71 Q1721.84 1480.44 1718.76 1485.04 Q1715.7 1489.63 1709.89 1489.63 Q1704.08 1489.63 1701 1485.04 Q1697.95 1480.44 1697.95 1471.71 Q1697.95 1462.96 1701 1458.38 Q1704.08 1453.77 1709.89 1453.77 Z" fill="#000000" fill-rule="nonzero" fill-opacity="1"></path><path clip-path="url(#clip150)" d="M1731.86 1445.99 Q1729.3 1445.99 1727.8 1447.74 Q1726.31 1449.49 1726.31 1452.54 Q1726.31 1455.57 1727.8 1457.33 Q1729.3 1459.08 1731.86 1459.08 Q1734.42 1459.08 1735.91 1457.33 Q1737.41 1455.57 1737.41 1452.54 Q1737.41 1449.49 1735.91 1447.74 Q1734.42 1445.99 1731.86 1445.99 M1739.4 1434.09 L1739.4 1437.55 Q1737.97 1436.87 1736.51 1436.51 Q1735.06 1436.16 1733.63 1436.16 Q1729.87 1436.16 1727.87 1438.69 Q1725.9 1441.23 1725.62 1446.37 Q1726.73 1444.73 1728.4 1443.87 Q1730.07 1442.98 1732.09 1442.98 Q1736.32 1442.98 1738.76 1445.56 Q1741.23 1448.12 1741.23 1452.54 Q1741.23 1456.86 1738.67 1459.48 Q1736.11 1462.09 1731.86 1462.09 Q1726.99 1462.09 1724.41 1458.37 Q1721.84 1454.62 1721.84 1447.53 Q1721.84 1440.88 1725 1436.93 Q1728.16 1432.96 1733.48 1432.96 Q1734.91 1432.96 1736.36 1433.24 Q1737.82 1433.52 1739.4 1434.09 Z" fill="#000000" fill-rule="nonzero" fill-opacity="1"></path><path clip-path="url(#clip150)" d="M1982.64 1485.02 L1998.96 1485.02 L1998.96 1488.96 L1977.02 1488.96 L1977.02 1485.02 Q1979.68 1482.27 1984.26 1477.64 Q1988.87 1472.98 1990.05 1471.64 Q1992.29 1469.12 1993.17 1467.38 Q1994.08 1465.62 1994.08 1463.93 Q1994.08 1461.18 1992.13 1459.44 Q1990.21 1457.71 1987.11 1457.71 Q1984.91 1457.71 1982.46 1458.47 Q1980.03 1459.23 1977.25 1460.79 L1977.25 1456.06 Q1980.07 1454.93 1982.53 1454.35 Q1984.98 1453.77 1987.02 1453.77 Q1992.39 1453.77 1995.58 1456.46 Q1998.78 1459.14 1998.78 1463.63 Q1998.78 1465.76 1997.97 1467.68 Q1997.18 1469.58 1995.07 1472.17 Q1994.49 1472.85 1991.39 1476.06 Q1988.29 1479.26 1982.64 1485.02 Z" fill="#000000" fill-rule="nonzero" fill-opacity="1"></path><path clip-path="url(#clip150)" d="M2008.78 1483.08 L2013.66 1483.08 L2013.66 1488.96 L2008.78 1488.96 L2008.78 1483.08 Z" fill="#000000" fill-rule="nonzero" fill-opacity="1"></path><path clip-path="url(#clip150)" d="M2033.85 1457.48 Q2030.23 1457.48 2028.41 1461.04 Q2026.6 1464.58 2026.6 1471.71 Q2026.6 1478.82 2028.41 1482.38 Q2030.23 1485.92 2033.85 1485.92 Q2037.48 1485.92 2039.29 1482.38 Q2041.11 1478.82 2041.11 1471.71 Q2041.11 1464.58 2039.29 1461.04 Q2037.48 1457.48 2033.85 1457.48 M2033.85 1453.77 Q2039.66 1453.77 2042.71 1458.38 Q2045.79 1462.96 2045.79 1471.71 Q2045.79 1480.44 2042.71 1485.04 Q2039.66 1489.63 2033.85 1489.63 Q2028.04 1489.63 2024.96 1485.04 Q2021.9 1480.44 2021.9 1471.71 Q2021.9 1462.96 2024.96 1458.38 Q2028.04 1453.77 2033.85 1453.77 Z" fill="#000000" fill-rule="nonzero" fill-opacity="1"></path><path clip-path="url(#clip150)" d="M2064.01 1457.48 Q2060.4 1457.48 2058.57 1461.04 Q2056.76 1464.58 2056.76 1471.71 Q2056.76 1478.82 2058.57 1482.38 Q2060.4 1485.92 2064.01 1485.92 Q2067.64 1485.92 2069.45 1482.38 Q2071.28 1478.82 2071.28 1471.71 Q2071.28 1464.58 2069.45 1461.04 Q2067.64 1457.48 2064.01 1457.48 M2064.01 1453.77 Q2069.82 1453.77 2072.87 1458.38 Q2075.95 1462.96 2075.95 1471.71 Q2075.95 1480.44 2072.87 1485.04 Q2069.82 1489.63 2064.01 1489.63 Q2058.2 1489.63 2055.12 1485.04 Q2052.06 1480.44 2052.06 1471.71 Q2052.06 1462.96 2055.12 1458.38 Q2058.2 1453.77 2064.01 1453.77 Z" fill="#000000" fill-rule="nonzero" fill-opacity="1"></path><path clip-path="url(#clip150)" d="M2112.34 1463.49 L2101.76 1474.12 L2112.34 1484.7 L2109.59 1487.5 L2098.96 1476.87 L2088.34 1487.5 L2085.6 1484.7 L2096.16 1474.12 L2085.6 1463.49 L2088.34 1460.69 L2098.96 1471.32 L2109.59 1460.69 L2112.34 1463.49 Z" fill="#000000" fill-rule="nonzero" fill-opacity="1"></path><path clip-path="url(#clip150)" d="M2124.7 1485.02 L2132.34 1485.02 L2132.34 1458.66 L2124.03 1460.32 L2124.03 1456.06 L2132.29 1454.4 L2136.97 1454.4 L2136.97 1485.02 L2144.61 1485.02 L2144.61 1488.96 L2124.7 1488.96 L2124.7 1485.02 Z" fill="#000000" fill-rule="nonzero" fill-opacity="1"></path><path clip-path="url(#clip150)" d="M2164.05 1457.48 Q2160.44 1457.48 2158.61 1461.04 Q2156.81 1464.58 2156.81 1471.71 Q2156.81 1478.82 2158.61 1482.38 Q2160.44 1485.92 2164.05 1485.92 Q2167.69 1485.92 2169.49 1482.38 Q2171.32 1478.82 2171.32 1471.71 Q2171.32 1464.58 2169.49 1461.04 Q2167.69 1457.48 2164.05 1457.48 M2164.05 1453.77 Q2169.86 1453.77 2172.92 1458.38 Q2176 1462.96 2176 1471.71 Q2176 1480.44 2172.92 1485.04 Q2169.86 1489.63 2164.05 1489.63 Q2158.24 1489.63 2155.16 1485.04 Q2152.11 1480.44 2152.11 1471.71 Q2152.11 1462.96 2155.16 1458.38 Q2158.24 1453.77 2164.05 1453.77 Z" fill="#000000" fill-rule="nonzero" fill-opacity="1"></path><path clip-path="url(#clip150)" d="M2186.02 1445.99 Q2183.46 1445.99 2181.96 1447.74 Q2180.47 1449.49 2180.47 1452.54 Q2180.47 1455.57 2181.96 1457.33 Q2183.46 1459.08 2186.02 1459.08 Q2188.58 1459.08 2190.07 1457.33 Q2191.57 1455.57 2191.57 1452.54 Q2191.57 1449.49 2190.07 1447.74 Q2188.58 1445.99 2186.02 1445.99 M2193.56 1434.09 L2193.56 1437.55 Q2192.13 1436.87 2190.67 1436.51 Q2189.22 1436.16 2187.79 1436.16 Q2184.03 1436.16 2182.03 1438.69 Q2180.06 1441.23 2179.78 1446.37 Q2180.89 1444.73 2182.56 1443.87 Q2184.24 1442.98 2186.25 1442.98 Q2190.48 1442.98 2192.92 1445.56 Q2195.39 1448.12 2195.39 1452.54 Q2195.39 1456.86 2192.83 1459.48 Q2190.27 1462.09 2186.02 1462.09 Q2181.15 1462.09 2178.57 1458.37 Q2176 1454.62 2176 1447.53 Q2176 1440.88 2179.16 1436.93 Q2182.32 1432.96 2187.64 1432.96 Q2189.07 1432.96 2190.52 1433.24 Q2191.98 1433.52 2193.56 1434.09 Z" fill="#000000" fill-rule="nonzero" fill-opacity="1"></path><path clip-path="url(#clip150)" d="M965.006 1539.59 L965.006 1545.13 Q962.524 1543.85 959.85 1543.22 Q957.177 1542.58 954.312 1542.58 Q949.951 1542.58 947.755 1543.92 Q945.591 1545.25 945.591 1547.93 Q945.591 1549.96 947.151 1551.14 Q948.71 1552.29 953.421 1553.34 L955.426 1553.78 Q961.664 1555.12 964.274 1557.57 Q966.916 1559.99 966.916 1564.35 Q966.916 1569.32 962.969 1572.21 Q959.054 1575.11 952.179 1575.11 Q949.315 1575.11 946.196 1574.54 Q943.108 1573.99 939.671 1572.88 L939.671 1566.83 Q942.917 1568.52 946.068 1569.38 Q949.219 1570.21 952.307 1570.21 Q956.445 1570.21 958.673 1568.81 Q960.901 1567.37 960.901 1564.8 Q960.901 1562.41 959.277 1561.14 Q957.686 1559.86 952.243 1558.68 L950.206 1558.21 Q944.763 1557.06 942.344 1554.71 Q939.925 1552.32 939.925 1548.18 Q939.925 1543.15 943.49 1540.42 Q947.055 1537.68 953.612 1537.68 Q956.858 1537.68 959.723 1538.16 Q962.587 1538.63 965.006 1539.59 Z" fill="#000000" fill-rule="nonzero" fill-opacity="1"></path><path clip-path="url(#clip150)" d="M982.035 1528.42 L982.035 1538.54 L994.098 1538.54 L994.098 1543.09 L982.035 1543.09 L982.035 1562.44 Q982.035 1566.8 983.212 1568.04 Q984.422 1569.28 988.082 1569.28 L994.098 1569.28 L994.098 1574.19 L988.082 1574.19 Q981.303 1574.19 978.724 1571.67 Q976.146 1569.12 976.146 1562.44 L976.146 1543.09 L971.85 1543.09 L971.85 1538.54 L976.146 1538.54 L976.146 1528.42 L982.035 1528.42 Z" fill="#000000" fill-rule="nonzero" fill-opacity="1"></path><path clip-path="url(#clip150)" d="M1032.29 1554.9 L1032.29 1557.76 L1005.36 1557.76 Q1005.75 1563.81 1008.99 1566.99 Q1012.27 1570.14 1018.1 1570.14 Q1021.47 1570.14 1024.62 1569.32 Q1027.8 1568.49 1030.92 1566.83 L1030.92 1572.37 Q1027.77 1573.71 1024.46 1574.41 Q1021.15 1575.11 1017.75 1575.11 Q1009.22 1575.11 1004.22 1570.14 Q999.254 1565.18 999.254 1556.71 Q999.254 1547.96 1003.96 1542.83 Q1008.71 1537.68 1016.73 1537.68 Q1023.92 1537.68 1028.09 1542.33 Q1032.29 1546.94 1032.29 1554.9 M1026.44 1553.18 Q1026.37 1548.37 1023.73 1545.51 Q1021.12 1542.64 1016.79 1542.64 Q1011.89 1542.64 1008.93 1545.41 Q1006 1548.18 1005.56 1553.21 L1026.44 1553.18 Z" fill="#000000" fill-rule="nonzero" fill-opacity="1"></path><path clip-path="url(#clip150)" d="M1047.57 1568.84 L1047.57 1587.74 L1041.68 1587.74 L1041.68 1538.54 L1047.57 1538.54 L1047.57 1543.95 Q1049.42 1540.77 1052.22 1539.24 Q1055.05 1537.68 1058.96 1537.68 Q1065.46 1537.68 1069.5 1542.83 Q1073.57 1547.99 1073.57 1556.39 Q1073.57 1564.8 1069.5 1569.95 Q1065.46 1575.11 1058.96 1575.11 Q1055.05 1575.11 1052.22 1573.58 Q1049.42 1572.02 1047.57 1568.84 M1067.49 1556.39 Q1067.49 1549.93 1064.82 1546.27 Q1062.18 1542.58 1057.53 1542.58 Q1052.88 1542.58 1050.21 1546.27 Q1047.57 1549.93 1047.57 1556.39 Q1047.57 1562.85 1050.21 1566.55 Q1052.88 1570.21 1057.53 1570.21 Q1062.18 1570.21 1064.82 1566.55 Q1067.49 1562.85 1067.49 1556.39 Z" fill="#000000" fill-rule="nonzero" fill-opacity="1"></path><path clip-path="url(#clip150)" d="M1106.01 1539.59 L1106.01 1545.13 Q1103.52 1543.85 1100.85 1543.22 Q1098.18 1542.58 1095.31 1542.58 Q1090.95 1542.58 1088.76 1543.92 Q1086.59 1545.25 1086.59 1547.93 Q1086.59 1549.96 1088.15 1551.14 Q1089.71 1552.29 1094.42 1553.34 L1096.43 1553.78 Q1102.66 1555.12 1105.27 1557.57 Q1107.92 1559.99 1107.92 1564.35 Q1107.92 1569.32 1103.97 1572.21 Q1100.05 1575.11 1093.18 1575.11 Q1090.32 1575.11 1087.2 1574.54 Q1084.11 1573.99 1080.67 1572.88 L1080.67 1566.83 Q1083.92 1568.52 1087.07 1569.38 Q1090.22 1570.21 1093.31 1570.21 Q1097.44 1570.21 1099.67 1568.81 Q1101.9 1567.37 1101.9 1564.8 Q1101.9 1562.41 1100.28 1561.14 Q1098.69 1559.86 1093.24 1558.68 L1091.21 1558.21 Q1085.76 1557.06 1083.34 1554.71 Q1080.93 1552.32 1080.93 1548.18 Q1080.93 1543.15 1084.49 1540.42 Q1088.06 1537.68 1094.61 1537.68 Q1097.86 1537.68 1100.72 1538.16 Q1103.59 1538.63 1106.01 1539.59 Z" fill="#000000" fill-rule="nonzero" fill-opacity="1"></path><path clip-path="url(#clip150)" d="M1137.96 1538.54 L1143.82 1538.54 L1143.82 1574.19 L1137.96 1574.19 L1137.96 1538.54 M1137.96 1524.66 L1143.82 1524.66 L1143.82 1532.08 L1137.96 1532.08 L1137.96 1524.66 Z" fill="#000000" fill-rule="nonzero" fill-opacity="1"></path><path clip-path="url(#clip150)" d="M1185.71 1552.67 L1185.71 1574.19 L1179.85 1574.19 L1179.85 1552.86 Q1179.85 1547.8 1177.88 1545.29 Q1175.9 1542.77 1171.96 1542.77 Q1167.21 1542.77 1164.48 1545.79 Q1161.74 1548.82 1161.74 1554.04 L1161.74 1574.19 L1155.85 1574.19 L1155.85 1538.54 L1161.74 1538.54 L1161.74 1544.08 Q1163.84 1540.86 1166.67 1539.27 Q1169.54 1537.68 1173.26 1537.68 Q1179.4 1537.68 1182.55 1541.5 Q1185.71 1545.29 1185.71 1552.67 Z" fill="#000000" fill-rule="nonzero" fill-opacity="1"></path><path clip-path="url(#clip150)" d="M1248.6 1554.9 L1248.6 1557.76 L1221.67 1557.76 Q1222.05 1563.81 1225.3 1566.99 Q1228.58 1570.14 1234.4 1570.14 Q1237.78 1570.14 1240.93 1569.32 Q1244.11 1568.49 1247.23 1566.83 L1247.23 1572.37 Q1244.08 1573.71 1240.77 1574.41 Q1237.46 1575.11 1234.05 1575.11 Q1225.52 1575.11 1220.53 1570.14 Q1215.56 1565.18 1215.56 1556.71 Q1215.56 1547.96 1220.27 1542.83 Q1225.01 1537.68 1233.03 1537.68 Q1240.23 1537.68 1244.4 1542.33 Q1248.6 1546.94 1248.6 1554.9 M1242.74 1553.18 Q1242.68 1548.37 1240.04 1545.51 Q1237.43 1542.64 1233.1 1542.64 Q1228.2 1542.64 1225.24 1545.41 Q1222.31 1548.18 1221.86 1553.21 L1242.74 1553.18 Z" fill="#000000" fill-rule="nonzero" fill-opacity="1"></path><path clip-path="url(#clip150)" d="M1287.84 1552.67 L1287.84 1574.19 L1281.99 1574.19 L1281.99 1552.86 Q1281.99 1547.8 1280.01 1545.29 Q1278.04 1542.77 1274.09 1542.77 Q1269.35 1542.77 1266.61 1545.79 Q1263.88 1548.82 1263.88 1554.04 L1263.88 1574.19 L1257.99 1574.19 L1257.99 1538.54 L1263.88 1538.54 L1263.88 1544.08 Q1265.98 1540.86 1268.81 1539.27 Q1271.67 1537.68 1275.4 1537.68 Q1281.54 1537.68 1284.69 1541.5 Q1287.84 1545.29 1287.84 1552.67 Z" fill="#000000" fill-rule="nonzero" fill-opacity="1"></path><path clip-path="url(#clip150)" d="M1295.32 1538.54 L1301.53 1538.54 L1312.67 1568.46 L1323.81 1538.54 L1330.02 1538.54 L1316.65 1574.19 L1308.69 1574.19 L1295.32 1538.54 Z" fill="#000000" fill-rule="nonzero" fill-opacity="1"></path><path clip-path="url(#clip150)" d="M1338.1 1538.54 L1343.96 1538.54 L1343.96 1574.19 L1338.1 1574.19 L1338.1 1538.54 M1338.1 1524.66 L1343.96 1524.66 L1343.96 1532.08 L1338.1 1532.08 L1338.1 1524.66 Z" fill="#000000" fill-rule="nonzero" fill-opacity="1"></path><path clip-path="url(#clip150)" d="M1376.87 1544.01 Q1375.88 1543.44 1374.7 1543.18 Q1373.56 1542.9 1372.16 1542.9 Q1367.19 1542.9 1364.52 1546.14 Q1361.88 1549.36 1361.88 1555.41 L1361.88 1574.19 L1355.99 1574.19 L1355.99 1538.54 L1361.88 1538.54 L1361.88 1544.08 Q1363.72 1540.83 1366.68 1539.27 Q1369.64 1537.68 1373.88 1537.68 Q1374.48 1537.68 1375.21 1537.77 Q1375.94 1537.84 1376.84 1538 L1376.87 1544.01 Z" fill="#000000" fill-rule="nonzero" fill-opacity="1"></path><path clip-path="url(#clip150)" d="M1395.39 1542.64 Q1390.68 1542.64 1387.94 1546.34 Q1385.21 1550 1385.21 1556.39 Q1385.21 1562.79 1387.91 1566.48 Q1390.65 1570.14 1395.39 1570.14 Q1400.07 1570.14 1402.81 1566.45 Q1405.55 1562.76 1405.55 1556.39 Q1405.55 1550.06 1402.81 1546.37 Q1400.07 1542.64 1395.39 1542.64 M1395.39 1537.68 Q1403.03 1537.68 1407.39 1542.64 Q1411.75 1547.61 1411.75 1556.39 Q1411.75 1565.15 1407.39 1570.14 Q1403.03 1575.11 1395.39 1575.11 Q1387.72 1575.11 1383.36 1570.14 Q1379.03 1565.15 1379.03 1556.39 Q1379.03 1547.61 1383.36 1542.64 Q1387.72 1537.68 1395.39 1537.68 Z" fill="#000000" fill-rule="nonzero" fill-opacity="1"></path><path clip-path="url(#clip150)" d="M1451.09 1552.67 L1451.09 1574.19 L1445.24 1574.19 L1445.24 1552.86 Q1445.24 1547.8 1443.26 1545.29 Q1441.29 1542.77 1437.34 1542.77 Q1432.6 1542.77 1429.86 1545.79 Q1427.12 1548.82 1427.12 1554.04 L1427.12 1574.19 L1421.24 1574.19 L1421.24 1538.54 L1427.12 1538.54 L1427.12 1544.08 Q1429.23 1540.86 1432.06 1539.27 Q1434.92 1537.68 1438.65 1537.68 Q1444.79 1537.68 1447.94 1541.5 Q1451.09 1545.29 1451.09 1552.67 Z" fill="#000000" fill-rule="nonzero" fill-opacity="1"></path><path clip-path="url(#clip150)" d="M1490.53 1545.38 Q1492.72 1541.43 1495.78 1539.56 Q1498.83 1537.68 1502.97 1537.68 Q1508.54 1537.68 1511.57 1541.59 Q1514.59 1545.48 1514.59 1552.67 L1514.59 1574.19 L1508.7 1574.19 L1508.7 1552.86 Q1508.7 1547.74 1506.89 1545.25 Q1505.07 1542.77 1501.35 1542.77 Q1496.8 1542.77 1494.16 1545.79 Q1491.51 1548.82 1491.51 1554.04 L1491.51 1574.19 L1485.63 1574.19 L1485.63 1552.86 Q1485.63 1547.7 1483.81 1545.25 Q1482 1542.77 1478.21 1542.77 Q1473.72 1542.77 1471.08 1545.83 Q1468.44 1548.85 1468.44 1554.04 L1468.44 1574.19 L1462.55 1574.19 L1462.55 1538.54 L1468.44 1538.54 L1468.44 1544.08 Q1470.44 1540.8 1473.24 1539.24 Q1476.05 1537.68 1479.9 1537.68 Q1483.78 1537.68 1486.49 1539.65 Q1489.22 1541.62 1490.53 1545.38 Z" fill="#000000" fill-rule="nonzero" fill-opacity="1"></path><path clip-path="url(#clip150)" d="M1556.76 1554.9 L1556.76 1557.76 L1529.84 1557.76 Q1530.22 1563.81 1533.46 1566.99 Q1536.74 1570.14 1542.57 1570.14 Q1545.94 1570.14 1549.09 1569.32 Q1552.27 1568.49 1555.39 1566.83 L1555.39 1572.37 Q1552.24 1573.71 1548.93 1574.41 Q1545.62 1575.11 1542.22 1575.11 Q1533.69 1575.11 1528.69 1570.14 Q1523.72 1565.18 1523.72 1556.71 Q1523.72 1547.96 1528.44 1542.83 Q1533.18 1537.68 1541.2 1537.68 Q1548.39 1537.68 1552.56 1542.33 Q1556.76 1546.94 1556.76 1554.9 M1550.91 1553.18 Q1550.84 1548.37 1548.2 1545.51 Q1545.59 1542.64 1541.26 1542.64 Q1536.36 1542.64 1533.4 1545.41 Q1530.47 1548.18 1530.03 1553.21 L1550.91 1553.18 Z" fill="#000000" fill-rule="nonzero" fill-opacity="1"></path><path clip-path="url(#clip150)" d="M1596.01 1552.67 L1596.01 1574.19 L1590.15 1574.19 L1590.15 1552.86 Q1590.15 1547.8 1588.18 1545.29 Q1586.2 1542.77 1582.26 1542.77 Q1577.51 1542.77 1574.78 1545.79 Q1572.04 1548.82 1572.04 1554.04 L1572.04 1574.19 L1566.15 1574.19 L1566.15 1538.54 L1572.04 1538.54 L1572.04 1544.08 Q1574.14 1540.86 1576.97 1539.27 Q1579.84 1537.68 1583.56 1537.68 Q1589.71 1537.68 1592.86 1541.5 Q1596.01 1545.29 1596.01 1552.67 Z" fill="#000000" fill-rule="nonzero" fill-opacity="1"></path><path clip-path="url(#clip150)" d="M1613.48 1528.42 L1613.48 1538.54 L1625.54 1538.54 L1625.54 1543.09 L1613.48 1543.09 L1613.48 1562.44 Q1613.48 1566.8 1614.66 1568.04 Q1615.87 1569.28 1619.53 1569.28 L1625.54 1569.28 L1625.54 1574.19 L1619.53 1574.19 Q1612.75 1574.19 1610.17 1571.67 Q1607.59 1569.12 1607.59 1562.44 L1607.59 1543.09 L1603.3 1543.09 L1603.3 1538.54 L1607.59 1538.54 L1607.59 1528.42 L1613.48 1528.42 Z" fill="#000000" fill-rule="nonzero" fill-opacity="1"></path><polyline clip-path="url(#clip152)" style="stroke:#000000; stroke-linecap:round; stroke-linejoin:round; stroke-width:2; stroke-opacity:0.1; fill:none" points="212.459,1229.41 2352.76,1229.41 "></polyline>
<polyline clip-path="url(#clip152)" style="stroke:#000000; stroke-linecap:round; stroke-linejoin:round; stroke-width:2; stroke-opacity:0.1; fill:none" points="212.459,985.649 2352.76,985.649 "></polyline>
<polyline clip-path="url(#clip152)" style="stroke:#000000; stroke-linecap:round; stroke-linejoin:round; stroke-width:2; stroke-opacity:0.1; fill:none" points="212.459,741.886 2352.76,741.886 "></polyline>
<polyline clip-path="url(#clip152)" style="stroke:#000000; stroke-linecap:round; stroke-linejoin:round; stroke-width:2; stroke-opacity:0.1; fill:none" points="212.459,498.123 2352.76,498.123 "></polyline>
<polyline clip-path="url(#clip152)" style="stroke:#000000; stroke-linecap:round; stroke-linejoin:round; stroke-width:2; stroke-opacity:0.1; fill:none" points="212.459,254.36 2352.76,254.36 "></polyline>
<polyline clip-path="url(#clip150)" style="stroke:#000000; stroke-linecap:round; stroke-linejoin:round; stroke-width:4; stroke-opacity:1; fill:none" points="212.459,1410.9 212.459,47.2441 "></polyline>
<polyline clip-path="url(#clip150)" style="stroke:#000000; stroke-linecap:round; stroke-linejoin:round; stroke-width:4; stroke-opacity:1; fill:none" points="212.459,1229.41 231.357,1229.41 "></polyline>
<polyline clip-path="url(#clip150)" style="stroke:#000000; stroke-linecap:round; stroke-linejoin:round; stroke-width:4; stroke-opacity:1; fill:none" points="212.459,985.649 231.357,985.649 "></polyline>
<polyline clip-path="url(#clip150)" style="stroke:#000000; stroke-linecap:round; stroke-linejoin:round; stroke-width:4; stroke-opacity:1; fill:none" points="212.459,741.886 231.357,741.886 "></polyline>
<polyline clip-path="url(#clip150)" style="stroke:#000000; stroke-linecap:round; stroke-linejoin:round; stroke-width:4; stroke-opacity:1; fill:none" points="212.459,498.123 231.357,498.123 "></polyline>
<polyline clip-path="url(#clip150)" style="stroke:#000000; stroke-linecap:round; stroke-linejoin:round; stroke-width:4; stroke-opacity:1; fill:none" points="212.459,254.36 231.357,254.36 "></polyline>
<path clip-path="url(#clip150)" d="M114.26 1229.86 L143.936 1229.86 L143.936 1233.8 L114.26 1233.8 L114.26 1229.86 Z" fill="#000000" fill-rule="nonzero" fill-opacity="1"></path><path clip-path="url(#clip150)" d="M166.876 1216.21 L155.07 1234.65 L166.876 1234.65 L166.876 1216.21 M165.649 1212.13 L171.528 1212.13 L171.528 1234.65 L176.459 1234.65 L176.459 1238.54 L171.528 1238.54 L171.528 1246.69 L166.876 1246.69 L166.876 1238.54 L151.274 1238.54 L151.274 1234.03 L165.649 1212.13 Z" fill="#000000" fill-rule="nonzero" fill-opacity="1"></path><path clip-path="url(#clip150)" d="M116.343 986.1 L146.019 986.1 L146.019 990.035 L116.343 990.035 L116.343 986.1 Z" fill="#000000" fill-rule="nonzero" fill-opacity="1"></path><path clip-path="url(#clip150)" d="M160.14 998.993 L176.459 998.993 L176.459 1002.93 L154.515 1002.93 L154.515 998.993 Q157.177 996.239 161.76 991.609 Q166.366 986.956 167.547 985.614 Q169.792 983.091 170.672 981.355 Q171.575 979.595 171.575 977.906 Q171.575 975.151 169.63 973.415 Q167.709 971.679 164.607 971.679 Q162.408 971.679 159.954 972.443 Q157.524 973.206 154.746 974.757 L154.746 970.035 Q157.57 968.901 160.024 968.322 Q162.477 967.744 164.515 967.744 Q169.885 967.744 173.079 970.429 Q176.274 973.114 176.274 977.605 Q176.274 979.734 175.464 981.655 Q174.677 983.554 172.57 986.146 Q171.991 986.818 168.889 990.035 Q165.788 993.23 160.14 998.993 Z" fill="#000000" fill-rule="nonzero" fill-opacity="1"></path><path clip-path="url(#clip150)" d="M164.515 727.684 Q160.903 727.684 159.075 731.249 Q157.269 734.791 157.269 741.921 Q157.269 749.027 159.075 752.592 Q160.903 756.133 164.515 756.133 Q168.149 756.133 169.954 752.592 Q171.783 749.027 171.783 741.921 Q171.783 734.791 169.954 731.249 Q168.149 727.684 164.515 727.684 M164.515 723.981 Q170.325 723.981 173.38 728.587 Q176.459 733.171 176.459 741.921 Q176.459 750.647 173.38 755.254 Q170.325 759.837 164.515 759.837 Q158.704 759.837 155.626 755.254 Q152.57 750.647 152.57 741.921 Q152.57 733.171 155.626 728.587 Q158.704 723.981 164.515 723.981 Z" fill="#000000" fill-rule="nonzero" fill-opacity="1"></path><path clip-path="url(#clip150)" d="M160.14 511.468 L176.459 511.468 L176.459 515.403 L154.515 515.403 L154.515 511.468 Q157.177 508.713 161.76 504.084 Q166.366 499.431 167.547 498.088 Q169.792 495.565 170.672 493.829 Q171.575 492.07 171.575 490.38 Q171.575 487.625 169.63 485.889 Q167.709 484.153 164.607 484.153 Q162.408 484.153 159.954 484.917 Q157.524 485.681 154.746 487.232 L154.746 482.51 Q157.57 481.375 160.024 480.797 Q162.477 480.218 164.515 480.218 Q169.885 480.218 173.079 482.903 Q176.274 485.588 176.274 490.079 Q176.274 492.209 175.464 494.13 Q174.677 496.028 172.57 498.621 Q171.991 499.292 168.889 502.51 Q165.788 505.704 160.14 511.468 Z" fill="#000000" fill-rule="nonzero" fill-opacity="1"></path><path clip-path="url(#clip150)" d="M166.876 241.154 L155.07 259.603 L166.876 259.603 L166.876 241.154 M165.649 237.08 L171.528 237.08 L171.528 259.603 L176.459 259.603 L176.459 263.492 L171.528 263.492 L171.528 271.64 L166.876 271.64 L166.876 263.492 L151.274 263.492 L151.274 258.978 L165.649 237.08 Z" fill="#000000" fill-rule="nonzero" fill-opacity="1"></path><path clip-path="url(#clip150)" d="M46.0847 875.879 Q46.0847 882.977 47.7079 885.714 Q49.3312 888.452 53.2461 888.452 Q56.3653 888.452 58.2114 886.415 Q60.0256 884.346 60.0256 880.813 Q60.0256 875.943 56.5881 873.015 Q53.1188 870.055 47.3897 870.055 L46.0847 870.055 L46.0847 875.879 M43.6657 864.198 L64.0042 864.198 L64.0042 870.055 L58.5933 870.055 Q61.8398 872.06 63.3994 875.052 Q64.9272 878.044 64.9272 882.372 Q64.9272 887.847 61.8716 891.094 Q58.7843 894.308 53.6281 894.308 Q47.6125 894.308 44.5569 890.298 Q41.5014 886.256 41.5014 878.267 L41.5014 870.055 L40.9285 870.055 Q36.8862 870.055 34.6901 872.728 Q32.4621 875.37 32.4621 880.176 Q32.4621 883.232 33.1941 886.128 Q33.9262 889.025 35.3903 891.698 L29.9795 891.698 Q28.7381 888.484 28.1334 885.46 Q27.4968 882.436 27.4968 879.572 Q27.4968 871.837 31.5072 868.018 Q35.5176 864.198 43.6657 864.198 Z" fill="#000000" fill-rule="nonzero" fill-opacity="1"></path><path clip-path="url(#clip150)" d="M28.3562 856.337 L28.3562 850.13 L58.275 838.99 L28.3562 827.85 L28.3562 821.644 L64.0042 835.012 L64.0042 842.969 L28.3562 856.337 Z" fill="#000000" fill-rule="nonzero" fill-opacity="1"></path><path clip-path="url(#clip150)" d="M45.7664 790.102 Q39.4007 790.102 35.8996 792.743 Q32.3984 795.353 32.3984 800.096 Q32.3984 804.806 35.8996 807.448 Q39.4007 810.058 45.7664 810.058 Q52.1003 810.058 55.6014 807.448 Q59.1026 804.806 59.1026 800.096 Q59.1026 795.353 55.6014 792.743 Q52.1003 790.102 45.7664 790.102 M59.58 784.245 Q68.683 784.245 73.1071 788.287 Q77.5631 792.33 77.5631 800.669 Q77.5631 803.756 77.0857 806.493 Q76.6401 809.231 75.6852 811.809 L69.9879 811.809 Q71.3884 809.231 72.0568 806.716 Q72.7252 804.202 72.7252 801.592 Q72.7252 795.831 69.7015 792.966 Q66.7096 790.102 60.6303 790.102 L57.7339 790.102 Q60.885 791.916 62.4446 794.749 Q64.0042 797.581 64.0042 801.528 Q64.0042 808.085 59.0071 812.095 Q54.01 816.105 45.7664 816.105 Q37.491 816.105 32.4939 812.095 Q27.4968 808.085 27.4968 801.528 Q27.4968 797.581 29.0564 794.749 Q30.616 791.916 33.7671 790.102 L28.3562 790.102 L28.3562 784.245 L59.58 784.245 Z" fill="#000000" fill-rule="nonzero" fill-opacity="1"></path><path clip-path="url(#clip150)" d="M33.8307 730.805 Q33.2578 731.792 33.0032 732.969 Q32.7167 734.115 32.7167 735.516 Q32.7167 740.481 35.9632 743.154 Q39.1779 745.796 45.2253 745.796 L64.0042 745.796 L64.0042 751.685 L28.3562 751.685 L28.3562 745.796 L33.8944 745.796 Q30.6479 743.95 29.0883 740.99 Q27.4968 738.03 27.4968 733.797 Q27.4968 733.192 27.5923 732.46 Q27.656 731.728 27.8151 730.837 L33.8307 730.805 Z" fill="#000000" fill-rule="nonzero" fill-opacity="1"></path><path clip-path="url(#clip150)" d="M44.7161 695.603 L47.5806 695.603 L47.5806 722.53 Q53.6281 722.148 56.8109 718.901 Q59.9619 715.623 59.9619 709.798 Q59.9619 706.424 59.1344 703.273 Q58.3069 700.09 56.6518 696.971 L62.1899 696.971 Q63.5267 700.122 64.227 703.432 Q64.9272 706.743 64.9272 710.148 Q64.9272 718.678 59.9619 723.675 Q54.9967 728.641 46.5303 728.641 Q37.7774 728.641 32.6531 723.93 Q27.4968 719.188 27.4968 711.167 Q27.4968 703.974 32.1438 699.804 Q36.7589 695.603 44.7161 695.603 M42.9973 701.459 Q38.1912 701.523 35.3266 704.165 Q32.4621 706.774 32.4621 711.103 Q32.4621 716.005 35.2312 718.965 Q38.0002 721.893 43.0292 722.339 L42.9973 701.459 Z" fill="#000000" fill-rule="nonzero" fill-opacity="1"></path><path clip-path="url(#clip150)" d="M18.2347 680.198 L28.3562 680.198 L28.3562 668.135 L32.9077 668.135 L32.9077 680.198 L52.2594 680.198 Q56.6199 680.198 57.8613 679.02 Q59.1026 677.811 59.1026 674.15 L59.1026 668.135 L64.0042 668.135 L64.0042 674.15 Q64.0042 680.93 61.4897 683.508 Q58.9434 686.086 52.2594 686.086 L32.9077 686.086 L32.9077 690.383 L28.3562 690.383 L28.3562 686.086 L18.2347 686.086 L18.2347 680.198 Z" fill="#000000" fill-rule="nonzero" fill-opacity="1"></path><path clip-path="url(#clip150)" d="M49.9359 661.037 L28.3562 661.037 L28.3562 655.18 L49.7131 655.18 Q54.7739 655.18 57.3202 653.207 Q59.8346 651.234 59.8346 647.287 Q59.8346 642.545 56.8109 639.807 Q53.7872 637.038 48.5673 637.038 L28.3562 637.038 L28.3562 631.182 L64.0042 631.182 L64.0042 637.038 L58.5296 637.038 Q61.7762 639.171 63.3676 642.003 Q64.9272 644.804 64.9272 648.528 Q64.9272 654.671 61.1078 657.854 Q57.2883 661.037 49.9359 661.037 M27.4968 646.3 L27.4968 646.3 Z" fill="#000000" fill-rule="nonzero" fill-opacity="1"></path><path clip-path="url(#clip150)" d="M33.8307 598.462 Q33.2578 599.449 33.0032 600.626 Q32.7167 601.772 32.7167 603.173 Q32.7167 608.138 35.9632 610.811 Q39.1779 613.453 45.2253 613.453 L64.0042 613.453 L64.0042 619.342 L28.3562 619.342 L28.3562 613.453 L33.8944 613.453 Q30.6479 611.607 29.0883 608.647 Q27.4968 605.687 27.4968 601.454 Q27.4968 600.849 27.5923 600.117 Q27.656 599.385 27.8151 598.494 L33.8307 598.462 Z" fill="#000000" fill-rule="nonzero" fill-opacity="1"></path><path clip-path="url(#clip150)" d="M42.4881 563.833 L64.0042 563.833 L64.0042 569.689 L42.679 569.689 Q37.6183 569.689 35.1038 571.662 Q32.5894 573.636 32.5894 577.582 Q32.5894 582.325 35.6131 585.062 Q38.6368 587.799 43.8567 587.799 L64.0042 587.799 L64.0042 593.688 L28.3562 593.688 L28.3562 587.799 L33.8944 587.799 Q30.6797 585.699 29.0883 582.866 Q27.4968 580.001 27.4968 576.277 Q27.4968 570.135 31.3163 566.984 Q35.1038 563.833 42.4881 563.833 Z" fill="#000000" fill-rule="nonzero" fill-opacity="1"></path><polyline clip-path="url(#clip152)" style="stroke:#009af9; stroke-linecap:round; stroke-linejoin:round; stroke-width:4; stroke-opacity:1; fill:none" points="273.033,1372.28 296.718,776.344 321.241,887.199 346.253,448.612 373.734,211.415 402.843,531.326 430.158,275.104 461.231,102.184 492.497,517.935 523.782,274.167 556.832,353.534 591.551,116.703 625.357,1172.01 660.16,1069.43 696.99,415.098 734.888,425.149 774.239,632.133 811.643,98.8194 853.199,975.711 890.726,177.758 929.357,207.117 970.373,293.46 1011.94,108.519 1052.87,277.642 1095.84,162.05 1140.08,739.608 1183.5,186.028 1227.37,632.77 1269.73,675.824 1314.22,489.925 1360.24,89.0237 1404.7,899.935 1451.06,310.896 1496.86,604.317 1543.5,385.405 1588.6,974.104 1635.32,753.263 1682.91,87.0634 1728.76,810.028 1775.98,305.695 1823.6,642.804 1870.5,98.4606 1917.14,117.845 1963.46,713.221 2012.37,214.905 2058.88,112.662 2105.27,539.025 2151.51,103.588 2198.74,122.321 2246.28,599.207 2292.18,118.309 "></polyline>
<polyline clip-path="url(#clip152)" style="stroke:#e26f46; stroke-linecap:round; stroke-linejoin:round; stroke-width:4; stroke-opacity:1; fill:none" points="273.033,1372.3 299.005,864.192 323.982,679.475 348.142,718.588 371.517,758.259 393.294,680.528 415.422,675.75 435.962,677.142 457.404,692.294 478.297,684.217 499.631,700.391 518.831,677.34 537.814,693.02 556.327,677.597 574.259,820.952 591.734,684.416 609.807,676.937 628.291,700.072 646.02,677.464 663.246,782.085 679.673,745.961 695.566,676.681 711.787,681.638 727.394,680.036 743.341,680.564 757.639,676.881 772.005,677.492 786.6,680.582 801.188,677.085 815.607,677.449 828.915,682.493 842.547,677.483 856.156,695.173 869.453,685.677 883.457,682.671 895.676,680.203 908.196,678.518 920.355,693.772 932.909,727.287 945.036,886.315 957.758,658.415 973.411,165.652 1020.63,96.431 1068.02,132.85 1113.33,85.838 1161.31,95.8929 1209.03,110.313 1258.12,141.293 1304.96,99.8413 1350.77,98.5262 1396.84,87.3265 "></polyline>
<path clip-path="url(#clip150)" d="M1819.93 1365.44 L2281.41 1365.44 L2281.41 1209.92 L1819.93 1209.92  Z" fill="#ffffff" fill-rule="evenodd" fill-opacity="1"></path>
<polyline clip-path="url(#clip150)" style="stroke:#000000; stroke-linecap:round; stroke-linejoin:round; stroke-width:4; stroke-opacity:1; fill:none" points="1819.93,1365.44 2281.41,1365.44 2281.41,1209.92 1819.93,1209.92 1819.93,1365.44 "></polyline>
<polyline clip-path="url(#clip150)" style="stroke:#009af9; stroke-linecap:round; stroke-linejoin:round; stroke-width:4; stroke-opacity:1; fill:none" points="1843.71,1261.76 1986.4,1261.76 "></polyline>
<path clip-path="url(#clip150)" d="M2026.2 1247.65 Q2021.11 1247.65 2018.1 1251.45 Q2015.11 1255.25 2015.11 1261.8 Q2015.11 1268.32 2018.1 1272.12 Q2021.11 1275.92 2026.2 1275.92 Q2031.29 1275.92 2034.25 1272.12 Q2037.24 1268.32 2037.24 1261.8 Q2037.24 1255.25 2034.25 1251.45 Q2031.29 1247.65 2026.2 1247.65 M2032.75 1278.42 L2038.91 1285.15 L2033.26 1285.15 L2028.14 1279.62 Q2027.38 1279.67 2026.96 1279.69 Q2026.57 1279.71 2026.2 1279.71 Q2018.91 1279.71 2014.53 1274.85 Q2010.18 1269.97 2010.18 1261.8 Q2010.18 1253.6 2014.53 1248.74 Q2018.91 1243.86 2026.2 1243.86 Q2033.47 1243.86 2037.82 1248.74 Q2042.17 1253.6 2042.17 1261.8 Q2042.17 1267.81 2039.74 1272.1 Q2037.33 1276.38 2032.75 1278.42 Z" fill="#000000" fill-rule="nonzero" fill-opacity="1"></path><path clip-path="url(#clip150)" d="M2069 1286.91 L2069 1290.22 L2044.37 1290.22 L2044.37 1286.91 L2069 1286.91 Z" fill="#000000" fill-rule="nonzero" fill-opacity="1"></path><path clip-path="url(#clip150)" d="M2073 1243.02 L2077.26 1243.02 L2077.26 1279.04 L2073 1279.04 L2073 1243.02 Z" fill="#000000" fill-rule="nonzero" fill-opacity="1"></path><path clip-path="url(#clip150)" d="M2108.35 1265.01 L2108.35 1267.1 L2088.77 1267.1 Q2089.04 1271.5 2091.41 1273.81 Q2093.79 1276.1 2098.03 1276.1 Q2100.48 1276.1 2102.77 1275.5 Q2105.09 1274.9 2107.35 1273.69 L2107.35 1277.72 Q2105.06 1278.69 2102.66 1279.2 Q2100.25 1279.71 2097.77 1279.71 Q2091.57 1279.71 2087.93 1276.1 Q2084.32 1272.49 2084.32 1266.33 Q2084.32 1259.97 2087.75 1256.24 Q2091.2 1252.49 2097.03 1252.49 Q2102.26 1252.49 2105.29 1255.87 Q2108.35 1259.23 2108.35 1265.01 M2104.09 1263.76 Q2104.04 1260.27 2102.12 1258.19 Q2100.23 1256.1 2097.08 1256.1 Q2093.51 1256.1 2091.36 1258.12 Q2089.23 1260.13 2088.91 1263.79 L2104.09 1263.76 Z" fill="#000000" fill-rule="nonzero" fill-opacity="1"></path><path clip-path="url(#clip150)" d="M2127.12 1266.01 Q2121.96 1266.01 2119.97 1267.19 Q2117.98 1268.37 2117.98 1271.22 Q2117.98 1273.49 2119.46 1274.83 Q2120.97 1276.15 2123.54 1276.15 Q2127.08 1276.15 2129.21 1273.65 Q2131.36 1271.12 2131.36 1266.96 L2131.36 1266.01 L2127.12 1266.01 M2135.62 1264.25 L2135.62 1279.04 L2131.36 1279.04 L2131.36 1275.11 Q2129.9 1277.47 2127.72 1278.6 Q2125.55 1279.71 2122.4 1279.71 Q2118.42 1279.71 2116.06 1277.49 Q2113.72 1275.25 2113.72 1271.5 Q2113.72 1267.12 2116.64 1264.9 Q2119.58 1262.68 2125.39 1262.68 L2131.36 1262.68 L2131.36 1262.26 Q2131.36 1259.32 2129.41 1257.72 Q2127.49 1256.1 2124 1256.1 Q2121.78 1256.1 2119.67 1256.63 Q2117.56 1257.17 2115.62 1258.23 L2115.62 1254.3 Q2117.96 1253.39 2120.16 1252.95 Q2122.35 1252.49 2124.44 1252.49 Q2130.06 1252.49 2132.84 1255.41 Q2135.62 1258.32 2135.62 1264.25 Z" fill="#000000" fill-rule="nonzero" fill-opacity="1"></path><path clip-path="url(#clip150)" d="M2159.41 1257.1 Q2158.7 1256.68 2157.84 1256.5 Q2157.01 1256.29 2155.99 1256.29 Q2152.38 1256.29 2150.43 1258.65 Q2148.51 1260.99 2148.51 1265.38 L2148.51 1279.04 L2144.23 1279.04 L2144.23 1253.12 L2148.51 1253.12 L2148.51 1257.14 Q2149.85 1254.78 2152.01 1253.65 Q2154.16 1252.49 2157.24 1252.49 Q2157.68 1252.49 2158.21 1252.56 Q2158.74 1252.61 2159.39 1252.72 L2159.41 1257.1 Z" fill="#000000" fill-rule="nonzero" fill-opacity="1"></path><path clip-path="url(#clip150)" d="M2184.6 1263.39 L2184.6 1279.04 L2180.34 1279.04 L2180.34 1263.53 Q2180.34 1259.85 2178.91 1258.02 Q2177.47 1256.19 2174.6 1256.19 Q2171.15 1256.19 2169.16 1258.39 Q2167.17 1260.59 2167.17 1264.39 L2167.17 1279.04 L2162.89 1279.04 L2162.89 1253.12 L2167.17 1253.12 L2167.17 1257.14 Q2168.7 1254.81 2170.76 1253.65 Q2172.84 1252.49 2175.55 1252.49 Q2180.02 1252.49 2182.31 1255.27 Q2184.6 1258.02 2184.6 1263.39 Z" fill="#000000" fill-rule="nonzero" fill-opacity="1"></path><path clip-path="url(#clip150)" d="M2193.09 1253.12 L2197.35 1253.12 L2197.35 1279.04 L2193.09 1279.04 L2193.09 1253.12 M2193.09 1243.02 L2197.35 1243.02 L2197.35 1248.42 L2193.09 1248.42 L2193.09 1243.02 Z" fill="#000000" fill-rule="nonzero" fill-opacity="1"></path><path clip-path="url(#clip150)" d="M2227.82 1263.39 L2227.82 1279.04 L2223.56 1279.04 L2223.56 1263.53 Q2223.56 1259.85 2222.12 1258.02 Q2220.69 1256.19 2217.82 1256.19 Q2214.37 1256.19 2212.38 1258.39 Q2210.39 1260.59 2210.39 1264.39 L2210.39 1279.04 L2206.1 1279.04 L2206.1 1253.12 L2210.39 1253.12 L2210.39 1257.14 Q2211.91 1254.81 2213.97 1253.65 Q2216.06 1252.49 2218.77 1252.49 Q2223.23 1252.49 2225.53 1255.27 Q2227.82 1258.02 2227.82 1263.39 Z" fill="#000000" fill-rule="nonzero" fill-opacity="1"></path><path clip-path="url(#clip150)" d="M2253.37 1265.78 Q2253.37 1261.15 2251.45 1258.6 Q2249.55 1256.06 2246.1 1256.06 Q2242.68 1256.06 2240.76 1258.6 Q2238.86 1261.15 2238.86 1265.78 Q2238.86 1270.38 2240.76 1272.93 Q2242.68 1275.48 2246.1 1275.48 Q2249.55 1275.48 2251.45 1272.93 Q2253.37 1270.38 2253.37 1265.78 M2257.63 1275.82 Q2257.63 1282.44 2254.69 1285.66 Q2251.75 1288.9 2245.69 1288.9 Q2243.44 1288.9 2241.45 1288.56 Q2239.46 1288.23 2237.59 1287.54 L2237.59 1283.39 Q2239.46 1284.41 2241.29 1284.9 Q2243.12 1285.38 2245.02 1285.38 Q2249.21 1285.38 2251.29 1283.19 Q2253.37 1281.01 2253.37 1276.59 L2253.37 1274.48 Q2252.05 1276.77 2249.99 1277.91 Q2247.93 1279.04 2245.06 1279.04 Q2240.29 1279.04 2237.38 1275.41 Q2234.46 1271.77 2234.46 1265.78 Q2234.46 1259.76 2237.38 1256.13 Q2240.29 1252.49 2245.06 1252.49 Q2247.93 1252.49 2249.99 1253.63 Q2252.05 1254.76 2253.37 1257.05 L2253.37 1253.12 L2257.63 1253.12 L2257.63 1275.82 Z" fill="#000000" fill-rule="nonzero" fill-opacity="1"></path><polyline clip-path="url(#clip150)" style="stroke:#e26f46; stroke-linecap:round; stroke-linejoin:round; stroke-width:4; stroke-opacity:1; fill:none" points="1843.71,1313.6 1986.4,1313.6 "></polyline>
<path clip-path="url(#clip150)" d="M2032.42 1297.46 L2032.42 1302.02 Q2029.76 1300.74 2027.4 1300.12 Q2025.04 1299.49 2022.84 1299.49 Q2019.02 1299.49 2016.94 1300.97 Q2014.88 1302.46 2014.88 1305.19 Q2014.88 1307.48 2016.24 1308.66 Q2017.63 1309.82 2021.48 1310.53 L2024.3 1311.11 Q2029.53 1312.11 2032.01 1314.63 Q2034.51 1317.13 2034.51 1321.34 Q2034.51 1326.37 2031.13 1328.96 Q2027.77 1331.55 2021.27 1331.55 Q2018.81 1331.55 2016.04 1331 Q2013.28 1330.44 2010.32 1329.35 L2010.32 1324.54 Q2013.17 1326.14 2015.9 1326.95 Q2018.63 1327.76 2021.27 1327.76 Q2025.27 1327.76 2027.45 1326.18 Q2029.62 1324.61 2029.62 1321.69 Q2029.62 1319.15 2028.05 1317.71 Q2026.5 1316.28 2022.93 1315.56 L2020.09 1315 Q2014.86 1313.96 2012.52 1311.74 Q2010.18 1309.52 2010.18 1305.56 Q2010.18 1300.97 2013.4 1298.34 Q2016.64 1295.7 2022.31 1295.7 Q2024.74 1295.7 2027.26 1296.14 Q2029.79 1296.58 2032.42 1297.46 Z" fill="#000000" fill-rule="nonzero" fill-opacity="1"></path><path clip-path="url(#clip150)" d="M2054.23 1300.93 L2047.89 1318.13 L2060.6 1318.13 L2054.23 1300.93 M2051.59 1296.32 L2056.89 1296.32 L2070.06 1330.88 L2065.2 1330.88 L2062.05 1322.02 L2046.48 1322.02 L2043.33 1330.88 L2038.4 1330.88 L2051.59 1296.32 Z" fill="#000000" fill-rule="nonzero" fill-opacity="1"></path><path clip-path="url(#clip150)" d="M2091.5 1314.68 Q2093 1315.19 2094.41 1316.85 Q2095.85 1318.52 2097.29 1321.44 L2102.03 1330.88 L2097.01 1330.88 L2092.59 1322.02 Q2090.87 1318.54 2089.25 1317.41 Q2087.66 1316.28 2084.88 1316.28 L2079.79 1316.28 L2079.79 1330.88 L2075.11 1330.88 L2075.11 1296.32 L2085.66 1296.32 Q2091.59 1296.32 2094.51 1298.8 Q2097.42 1301.28 2097.42 1306.28 Q2097.42 1309.54 2095.9 1311.69 Q2094.39 1313.84 2091.5 1314.68 M2079.79 1300.16 L2079.79 1312.43 L2085.66 1312.43 Q2089.04 1312.43 2090.76 1310.88 Q2092.49 1309.31 2092.49 1306.28 Q2092.49 1303.24 2090.76 1301.72 Q2089.04 1300.16 2085.66 1300.16 L2079.79 1300.16 Z" fill="#000000" fill-rule="nonzero" fill-opacity="1"></path><path clip-path="url(#clip150)" d="M2128.77 1297.46 L2128.77 1302.02 Q2126.1 1300.74 2123.74 1300.12 Q2121.38 1299.49 2119.18 1299.49 Q2115.36 1299.49 2113.28 1300.97 Q2111.22 1302.46 2111.22 1305.19 Q2111.22 1307.48 2112.59 1308.66 Q2113.97 1309.82 2117.82 1310.53 L2120.64 1311.11 Q2125.87 1312.11 2128.35 1314.63 Q2130.85 1317.13 2130.85 1321.34 Q2130.85 1326.37 2127.47 1328.96 Q2124.11 1331.55 2117.61 1331.55 Q2115.16 1331.55 2112.38 1331 Q2109.62 1330.44 2106.66 1329.35 L2106.66 1324.54 Q2109.51 1326.14 2112.24 1326.95 Q2114.97 1327.76 2117.61 1327.76 Q2121.61 1327.76 2123.79 1326.18 Q2125.97 1324.61 2125.97 1321.69 Q2125.97 1319.15 2124.39 1317.71 Q2122.84 1316.28 2119.28 1315.56 L2116.43 1315 Q2111.2 1313.96 2108.86 1311.74 Q2106.52 1309.52 2106.52 1305.56 Q2106.52 1300.97 2109.74 1298.34 Q2112.98 1295.7 2118.65 1295.7 Q2121.08 1295.7 2123.6 1296.14 Q2126.13 1296.58 2128.77 1297.46 Z" fill="#000000" fill-rule="nonzero" fill-opacity="1"></path><path clip-path="url(#clip150)" d="M2150.57 1300.93 L2144.23 1318.13 L2156.94 1318.13 L2150.57 1300.93 M2147.93 1296.32 L2153.23 1296.32 L2166.41 1330.88 L2161.54 1330.88 L2158.4 1322.02 L2142.82 1322.02 L2139.67 1330.88 L2134.74 1330.88 L2147.93 1296.32 Z" fill="#000000" fill-rule="nonzero" fill-opacity="1"></path></svg>