<svg xmlns="http://www.w3.org/2000/svg" xmlns:xlink="http://www.w3.org/1999/xlink" width="600" height="400" viewBox="0 0 2400 1600">
<defs>
  <clipPath id="clip190">
    <rect x="0" y="0" width="2400" height="1600"></rect>
  </clipPath>
</defs>
<path clip-path="url(#clip190)" d="M0 1600 L2400 1600 L2400 0 L0 0  Z" fill="#ffffff" fill-rule="evenodd" fill-opacity="1"></path>
<defs>
  <clipPath id="clip191">
    <rect x="480" y="0" width="1681" height="1600"></rect>
  </clipPath>
</defs>
<path clip-path="url(#clip190)" d="M212.459 1423.18 L2352.76 1423.18 L2352.76 47.2441 L212.459 47.2441  Z" fill="#ffffff" fill-rule="evenodd" fill-opacity="1"></path>
<defs>
  <clipPath id="clip192">
    <rect x="212" y="47" width="2141" height="1377"></rect>
  </clipPath>
</defs>
<polyline clip-path="url(#clip192)" style="stroke:#000000; stroke-linecap:round; stroke-linejoin:round; stroke-width:2; stroke-opacity:0.1; fill:none" points="273.033,1423.18 273.033,47.2441 "></polyline>
<polyline clip-path="url(#clip192)" style="stroke:#000000; stroke-linecap:round; stroke-linejoin:round; stroke-width:2; stroke-opacity:0.1; fill:none" points="784.985,1423.18 784.985,47.2441 "></polyline>
<polyline clip-path="url(#clip192)" style="stroke:#000000; stroke-linecap:round; stroke-linejoin:round; stroke-width:2; stroke-opacity:0.1; fill:none" points="1296.94,1423.18 1296.94,47.2441 "></polyline>
<polyline clip-path="url(#clip192)" style="stroke:#000000; stroke-linecap:round; stroke-linejoin:round; stroke-width:2; stroke-opacity:0.1; fill:none" points="1808.89,1423.18 1808.89,47.2441 "></polyline>
<polyline clip-path="url(#clip192)" style="stroke:#000000; stroke-linecap:round; stroke-linejoin:round; stroke-width:2; stroke-opacity:0.1; fill:none" points="2320.84,1423.18 2320.84,47.2441 "></polyline>
<polyline clip-path="url(#clip190)" style="stroke:#000000; stroke-linecap:round; stroke-linejoin:round; stroke-width:4; stroke-opacity:1; fill:none" points="212.459,1423.18 2352.76,1423.18 "></polyline>
<polyline clip-path="url(#clip190)" style="stroke:#000000; stroke-linecap:round; stroke-linejoin:round; stroke-width:4; stroke-opacity:1; fill:none" points="273.033,1423.18 273.033,1404.28 "></polyline>
<polyline clip-path="url(#clip190)" style="stroke:#000000; stroke-linecap:round; stroke-linejoin:round; stroke-width:4; stroke-opacity:1; fill:none" points="784.985,1423.18 784.985,1404.28 "></polyline>
<polyline clip-path="url(#clip190)" style="stroke:#000000; stroke-linecap:round; stroke-linejoin:round; stroke-width:4; stroke-opacity:1; fill:none" points="1296.94,1423.18 1296.94,1404.28 "></polyline>
<polyline clip-path="url(#clip190)" style="stroke:#000000; stroke-linecap:round; stroke-linejoin:round; stroke-width:4; stroke-opacity:1; fill:none" points="1808.89,1423.18 1808.89,1404.28 "></polyline>
<polyline clip-path="url(#clip190)" style="stroke:#000000; stroke-linecap:round; stroke-linejoin:round; stroke-width:4; stroke-opacity:1; fill:none" points="2320.84,1423.18 2320.84,1404.28 "></polyline>
<path clip-path="url(#clip190)" d="M250.418 1454.1 Q246.807 1454.1 244.978 1457.66 Q243.172 1461.2 243.172 1468.33 Q243.172 1475.44 244.978 1479.01 Q246.807 1482.55 250.418 1482.55 Q254.052 1482.55 255.858 1479.01 Q257.686 1475.44 257.686 1468.33 Q257.686 1461.2 255.858 1457.66 Q254.052 1454.1 250.418 1454.1 M250.418 1450.39 Q256.228 1450.39 259.283 1455 Q262.362 1459.58 262.362 1468.33 Q262.362 1477.06 259.283 1481.67 Q256.228 1486.25 250.418 1486.25 Q244.608 1486.25 241.529 1481.67 Q238.473 1477.06 238.473 1468.33 Q238.473 1459.58 241.529 1455 Q244.608 1450.39 250.418 1450.39 Z" fill="#000000" fill-rule="nonzero" fill-opacity="1"></path><path clip-path="url(#clip190)" d="M270.58 1479.7 L275.464 1479.7 L275.464 1485.58 L270.58 1485.58 L270.58 1479.7 Z" fill="#000000" fill-rule="nonzero" fill-opacity="1"></path><path clip-path="url(#clip190)" d="M295.649 1454.1 Q292.038 1454.1 290.209 1457.66 Q288.404 1461.2 288.404 1468.33 Q288.404 1475.44 290.209 1479.01 Q292.038 1482.55 295.649 1482.55 Q299.283 1482.55 301.089 1479.01 Q302.917 1475.44 302.917 1468.33 Q302.917 1461.2 301.089 1457.66 Q299.283 1454.1 295.649 1454.1 M295.649 1450.39 Q301.459 1450.39 304.515 1455 Q307.593 1459.58 307.593 1468.33 Q307.593 1477.06 304.515 1481.67 Q301.459 1486.25 295.649 1486.25 Q289.839 1486.25 286.76 1481.67 Q283.705 1477.06 283.705 1468.33 Q283.705 1459.58 286.76 1455 Q289.839 1450.39 295.649 1450.39 Z" fill="#000000" fill-rule="nonzero" fill-opacity="1"></path><path clip-path="url(#clip190)" d="M756.721 1481.64 L773.04 1481.64 L773.04 1485.58 L751.096 1485.58 L751.096 1481.64 Q753.758 1478.89 758.341 1474.26 Q762.948 1469.61 764.128 1468.27 Q766.373 1465.74 767.253 1464.01 Q768.156 1462.25 768.156 1460.56 Q768.156 1457.8 766.211 1456.07 Q764.29 1454.33 761.188 1454.33 Q758.989 1454.33 756.536 1455.09 Q754.105 1455.86 751.327 1457.41 L751.327 1452.69 Q754.151 1451.55 756.605 1450.97 Q759.059 1450.39 761.096 1450.39 Q766.466 1450.39 769.661 1453.08 Q772.855 1455.77 772.855 1460.26 Q772.855 1462.39 772.045 1464.31 Q771.258 1466.2 769.151 1468.8 Q768.573 1469.47 765.471 1472.69 Q762.369 1475.88 756.721 1481.64 Z" fill="#000000" fill-rule="nonzero" fill-opacity="1"></path><path clip-path="url(#clip190)" d="M782.855 1479.7 L787.739 1479.7 L787.739 1485.58 L782.855 1485.58 L782.855 1479.7 Z" fill="#000000" fill-rule="nonzero" fill-opacity="1"></path><path clip-path="url(#clip190)" d="M797.971 1451.02 L816.327 1451.02 L816.327 1454.96 L802.253 1454.96 L802.253 1463.43 Q803.271 1463.08 804.29 1462.92 Q805.308 1462.73 806.327 1462.73 Q812.114 1462.73 815.494 1465.9 Q818.873 1469.08 818.873 1474.49 Q818.873 1480.07 815.401 1483.17 Q811.929 1486.25 805.609 1486.25 Q803.433 1486.25 801.165 1485.88 Q798.92 1485.51 796.512 1484.77 L796.512 1480.07 Q798.596 1481.2 800.818 1481.76 Q803.04 1482.32 805.517 1482.32 Q809.521 1482.32 811.859 1480.21 Q814.197 1478.1 814.197 1474.49 Q814.197 1470.88 811.859 1468.77 Q809.521 1466.67 805.517 1466.67 Q803.642 1466.67 801.767 1467.08 Q799.915 1467.5 797.971 1468.38 L797.971 1451.02 Z" fill="#000000" fill-rule="nonzero" fill-opacity="1"></path><path clip-path="url(#clip190)" d="M1264.1 1451.02 L1282.46 1451.02 L1282.46 1454.96 L1268.38 1454.96 L1268.38 1463.43 Q1269.4 1463.08 1270.42 1462.92 Q1271.44 1462.73 1272.46 1462.73 Q1278.24 1462.73 1281.62 1465.9 Q1285 1469.08 1285 1474.49 Q1285 1480.07 1281.53 1483.17 Q1278.06 1486.25 1271.74 1486.25 Q1269.56 1486.25 1267.29 1485.88 Q1265.05 1485.51 1262.64 1484.77 L1262.64 1480.07 Q1264.73 1481.2 1266.95 1481.76 Q1269.17 1482.32 1271.65 1482.32 Q1275.65 1482.32 1277.99 1480.21 Q1280.33 1478.1 1280.33 1474.49 Q1280.33 1470.88 1277.99 1468.77 Q1275.65 1466.67 1271.65 1466.67 Q1269.77 1466.67 1267.9 1467.08 Q1266.04 1467.5 1264.1 1468.38 L1264.1 1451.02 Z" fill="#000000" fill-rule="nonzero" fill-opacity="1"></path><path clip-path="url(#clip190)" d="M1294.22 1479.7 L1299.1 1479.7 L1299.1 1485.58 L1294.22 1485.58 L1294.22 1479.7 Z" fill="#000000" fill-rule="nonzero" fill-opacity="1"></path><path clip-path="url(#clip190)" d="M1319.29 1454.1 Q1315.67 1454.1 1313.85 1457.66 Q1312.04 1461.2 1312.04 1468.33 Q1312.04 1475.44 1313.85 1479.01 Q1315.67 1482.55 1319.29 1482.55 Q1322.92 1482.55 1324.72 1479.01 Q1326.55 1475.44 1326.55 1468.33 Q1326.55 1461.2 1324.72 1457.66 Q1322.92 1454.1 1319.29 1454.1 M1319.29 1450.39 Q1325.1 1450.39 1328.15 1455 Q1331.23 1459.58 1331.23 1468.33 Q1331.23 1477.06 1328.15 1481.67 Q1325.1 1486.25 1319.29 1486.25 Q1313.47 1486.25 1310.4 1481.67 Q1307.34 1477.06 1307.34 1468.33 Q1307.34 1459.58 1310.4 1455 Q1313.47 1450.39 1319.29 1450.39 Z" fill="#000000" fill-rule="nonzero" fill-opacity="1"></path><path clip-path="url(#clip190)" d="M1775.21 1451.02 L1797.43 1451.02 L1797.43 1453.01 L1784.88 1485.58 L1780 1485.58 L1791.8 1454.96 L1775.21 1454.96 L1775.21 1451.02 Z" fill="#000000" fill-rule="nonzero" fill-opacity="1"></path><path clip-path="url(#clip190)" d="M1806.55 1479.7 L1811.43 1479.7 L1811.43 1485.58 L1806.55 1485.58 L1806.55 1479.7 Z" fill="#000000" fill-rule="nonzero" fill-opacity="1"></path><path clip-path="url(#clip190)" d="M1821.66 1451.02 L1840.02 1451.02 L1840.02 1454.96 L1825.95 1454.96 L1825.95 1463.43 Q1826.97 1463.08 1827.98 1462.92 Q1829 1462.73 1830.02 1462.73 Q1835.81 1462.73 1839.19 1465.9 Q1842.57 1469.08 1842.57 1474.49 Q1842.57 1480.07 1839.1 1483.17 Q1835.62 1486.25 1829.3 1486.25 Q1827.13 1486.25 1824.86 1485.88 Q1822.61 1485.51 1820.21 1484.77 L1820.21 1480.07 Q1822.29 1481.2 1824.51 1481.76 Q1826.73 1482.32 1829.21 1482.32 Q1833.22 1482.32 1835.55 1480.21 Q1837.89 1478.1 1837.89 1474.49 Q1837.89 1470.88 1835.55 1468.77 Q1833.22 1466.67 1829.21 1466.67 Q1827.34 1466.67 1825.46 1467.08 Q1823.61 1467.5 1821.66 1468.38 L1821.66 1451.02 Z" fill="#000000" fill-rule="nonzero" fill-opacity="1"></path><path clip-path="url(#clip190)" d="M2272.91 1481.64 L2280.55 1481.64 L2280.55 1455.28 L2272.24 1456.95 L2272.24 1452.69 L2280.5 1451.02 L2285.18 1451.02 L2285.18 1481.64 L2292.82 1481.64 L2292.82 1485.58 L2272.91 1485.58 L2272.91 1481.64 Z" fill="#000000" fill-rule="nonzero" fill-opacity="1"></path><path clip-path="url(#clip190)" d="M2312.26 1454.1 Q2308.65 1454.1 2306.82 1457.66 Q2305.02 1461.2 2305.02 1468.33 Q2305.02 1475.44 2306.82 1479.01 Q2308.65 1482.55 2312.26 1482.55 Q2315.9 1482.55 2317.7 1479.01 Q2319.53 1475.44 2319.53 1468.33 Q2319.53 1461.2 2317.7 1457.66 Q2315.9 1454.1 2312.26 1454.1 M2312.26 1450.39 Q2318.07 1450.39 2321.13 1455 Q2324.21 1459.58 2324.21 1468.33 Q2324.21 1477.06 2321.13 1481.67 Q2318.07 1486.25 2312.26 1486.25 Q2306.45 1486.25 2303.37 1481.67 Q2300.32 1477.06 2300.32 1468.33 Q2300.32 1459.58 2303.37 1455 Q2306.45 1450.39 2312.26 1450.39 Z" fill="#000000" fill-rule="nonzero" fill-opacity="1"></path><path clip-path="url(#clip190)" d="M2332.42 1479.7 L2337.31 1479.7 L2337.31 1485.58 L2332.42 1485.58 L2332.42 1479.7 Z" fill="#000000" fill-rule="nonzero" fill-opacity="1"></path><path clip-path="url(#clip190)" d="M2357.49 1454.1 Q2353.88 1454.1 2352.05 1457.66 Q2350.25 1461.2 2350.25 1468.33 Q2350.25 1475.44 2352.05 1479.01 Q2353.88 1482.55 2357.49 1482.55 Q2361.13 1482.55 2362.93 1479.01 Q2364.76 1475.44 2364.76 1468.33 Q2364.76 1461.2 2362.93 1457.66 Q2361.13 1454.1 2357.49 1454.1 M2357.49 1450.39 Q2363.3 1450.39 2366.36 1455 Q2369.44 1459.58 2369.44 1468.33 Q2369.44 1477.06 2366.36 1481.67 Q2363.3 1486.25 2357.49 1486.25 Q2351.68 1486.25 2348.6 1481.67 Q2345.55 1477.06 2345.55 1468.33 Q2345.55 1459.58 2348.6 1455 Q2351.68 1450.39 2357.49 1450.39 Z" fill="#000000" fill-rule="nonzero" fill-opacity="1"></path><path clip-path="url(#clip190)" d="M1042.91 1532.4 L1048.76 1532.4 L1056.08 1560.21 L1063.37 1532.4 L1070.28 1532.4 L1077.6 1560.21 L1084.89 1532.4 L1090.75 1532.4 L1081.42 1568.04 L1074.51 1568.04 L1066.84 1538.83 L1059.14 1568.04 L1052.23 1568.04 L1042.91 1532.4 Z" fill="#000000" fill-rule="nonzero" fill-opacity="1"></path><path clip-path="url(#clip190)" d="M1115.83 1550.12 Q1108.73 1550.12 1105.99 1551.75 Q1103.25 1553.37 1103.25 1557.29 Q1103.25 1560.4 1105.29 1562.25 Q1107.36 1564.07 1110.89 1564.07 Q1115.76 1564.07 1118.69 1560.63 Q1121.65 1557.16 1121.65 1551.43 L1121.65 1550.12 L1115.83 1550.12 M1127.51 1547.71 L1127.51 1568.04 L1121.65 1568.04 L1121.65 1562.63 Q1119.65 1565.88 1116.65 1567.44 Q1113.66 1568.97 1109.33 1568.97 Q1103.86 1568.97 1100.61 1565.91 Q1097.4 1562.82 1097.4 1557.67 Q1097.4 1551.65 1101.41 1548.6 Q1105.45 1545.54 1113.44 1545.54 L1121.65 1545.54 L1121.65 1544.97 Q1121.65 1540.93 1118.98 1538.73 Q1116.34 1536.5 1111.53 1536.5 Q1108.47 1536.5 1105.58 1537.23 Q1102.68 1537.97 1100.01 1539.43 L1100.01 1534.02 Q1103.22 1532.78 1106.25 1532.17 Q1109.27 1531.54 1112.13 1531.54 Q1119.87 1531.54 1123.69 1535.55 Q1127.51 1539.56 1127.51 1547.71 Z" fill="#000000" fill-rule="nonzero" fill-opacity="1"></path><path clip-path="url(#clip190)" d="M1139.57 1518.52 L1145.43 1518.52 L1145.43 1568.04 L1139.57 1568.04 L1139.57 1518.52 Z" fill="#000000" fill-rule="nonzero" fill-opacity="1"></path><path clip-path="url(#clip190)" d="M1157.68 1518.52 L1163.54 1518.52 L1163.54 1568.04 L1157.68 1568.04 L1157.68 1518.52 Z" fill="#000000" fill-rule="nonzero" fill-opacity="1"></path><path clip-path="url(#clip190)" d="M1222.17 1533.76 L1222.17 1539.24 Q1219.68 1537.87 1217.17 1537.2 Q1214.69 1536.5 1212.14 1536.5 Q1206.44 1536.5 1203.29 1540.13 Q1200.14 1543.73 1200.14 1550.25 Q1200.14 1556.78 1203.29 1560.4 Q1206.44 1564 1212.14 1564 Q1214.69 1564 1217.17 1563.33 Q1219.68 1562.63 1222.17 1561.26 L1222.17 1566.68 Q1219.71 1567.82 1217.07 1568.39 Q1214.46 1568.97 1211.5 1568.97 Q1203.45 1568.97 1198.71 1563.91 Q1193.96 1558.85 1193.96 1550.25 Q1193.96 1541.53 1198.74 1536.53 Q1203.55 1531.54 1211.88 1531.54 Q1214.59 1531.54 1217.17 1532.11 Q1219.75 1532.65 1222.17 1533.76 Z" fill="#000000" fill-rule="nonzero" fill-opacity="1"></path><path clip-path="url(#clip190)" d="M1232.35 1518.52 L1238.21 1518.52 L1238.21 1568.04 L1232.35 1568.04 L1232.35 1518.52 Z" fill="#000000" fill-rule="nonzero" fill-opacity="1"></path><path clip-path="url(#clip190)" d="M1264.27 1536.5 Q1259.56 1536.5 1256.83 1540.19 Q1254.09 1543.85 1254.09 1550.25 Q1254.09 1556.65 1256.79 1560.34 Q1259.53 1564 1264.27 1564 Q1268.95 1564 1271.69 1560.31 Q1274.43 1556.62 1274.43 1550.25 Q1274.43 1543.92 1271.69 1540.23 Q1268.95 1536.5 1264.27 1536.5 M1264.27 1531.54 Q1271.91 1531.54 1276.27 1536.5 Q1280.63 1541.47 1280.63 1550.25 Q1280.63 1559 1276.27 1564 Q1271.91 1568.97 1264.27 1568.97 Q1256.6 1568.97 1252.24 1564 Q1247.91 1559 1247.91 1550.25 Q1247.91 1541.47 1252.24 1536.5 Q1256.6 1531.54 1264.27 1531.54 Z" fill="#000000" fill-rule="nonzero" fill-opacity="1"></path><path clip-path="url(#clip190)" d="M1316 1533.76 L1316 1539.24 Q1313.51 1537.87 1311 1537.2 Q1308.52 1536.5 1305.97 1536.5 Q1300.27 1536.5 1297.12 1540.13 Q1293.97 1543.73 1293.97 1550.25 Q1293.97 1556.78 1297.12 1560.4 Q1300.27 1564 1305.97 1564 Q1308.52 1564 1311 1563.33 Q1313.51 1562.63 1316 1561.26 L1316 1566.68 Q1313.54 1567.82 1310.9 1568.39 Q1308.29 1568.97 1305.33 1568.97 Q1297.28 1568.97 1292.54 1563.91 Q1287.8 1558.85 1287.8 1550.25 Q1287.8 1541.53 1292.57 1536.53 Q1297.38 1531.54 1305.71 1531.54 Q1308.42 1531.54 1311 1532.11 Q1313.58 1532.65 1316 1533.76 Z" fill="#000000" fill-rule="nonzero" fill-opacity="1"></path><path clip-path="url(#clip190)" d="M1325.96 1518.52 L1331.85 1518.52 L1331.85 1547.77 L1349.32 1532.4 L1356.8 1532.4 L1337.89 1549.07 L1357.6 1568.04 L1349.96 1568.04 L1331.85 1550.63 L1331.85 1568.04 L1325.96 1568.04 L1325.96 1518.52 Z" fill="#000000" fill-rule="nonzero" fill-opacity="1"></path><path clip-path="url(#clip190)" d="M1390.44 1522.27 L1390.44 1532.4 L1402.51 1532.4 L1402.51 1536.95 L1390.44 1536.95 L1390.44 1556.3 Q1390.44 1560.66 1391.62 1561.9 Q1392.83 1563.14 1396.49 1563.14 L1402.51 1563.14 L1402.51 1568.04 L1396.49 1568.04 Q1389.71 1568.04 1387.13 1565.53 Q1384.55 1562.98 1384.55 1556.3 L1384.55 1536.95 L1380.26 1536.95 L1380.26 1532.4 L1384.55 1532.4 L1384.55 1522.27 L1390.44 1522.27 Z" fill="#000000" fill-rule="nonzero" fill-opacity="1"></path><path clip-path="url(#clip190)" d="M1410.21 1532.4 L1416.06 1532.4 L1416.06 1568.04 L1410.21 1568.04 L1410.21 1532.4 M1410.21 1518.52 L1416.06 1518.52 L1416.06 1525.93 L1410.21 1525.93 L1410.21 1518.52 Z" fill="#000000" fill-rule="nonzero" fill-opacity="1"></path><path clip-path="url(#clip190)" d="M1456.07 1539.24 Q1458.27 1535.29 1461.32 1533.41 Q1464.38 1531.54 1468.52 1531.54 Q1474.09 1531.54 1477.11 1535.45 Q1480.14 1539.33 1480.14 1546.53 L1480.14 1568.04 L1474.25 1568.04 L1474.25 1546.72 Q1474.25 1541.59 1472.43 1539.11 Q1470.62 1536.63 1466.89 1536.63 Q1462.34 1536.63 1459.7 1539.65 Q1457.06 1542.68 1457.06 1547.9 L1457.06 1568.04 L1451.17 1568.04 L1451.17 1546.72 Q1451.17 1541.56 1449.36 1539.11 Q1447.54 1536.63 1443.76 1536.63 Q1439.27 1536.63 1436.63 1539.68 Q1433.98 1542.71 1433.98 1547.9 L1433.98 1568.04 L1428.1 1568.04 L1428.1 1532.4 L1433.98 1532.4 L1433.98 1537.93 Q1435.99 1534.66 1438.79 1533.1 Q1441.59 1531.54 1445.44 1531.54 Q1449.33 1531.54 1452.03 1533.51 Q1454.77 1535.48 1456.07 1539.24 Z" fill="#000000" fill-rule="nonzero" fill-opacity="1"></path><path clip-path="url(#clip190)" d="M1522.31 1548.76 L1522.31 1551.62 L1495.38 1551.62 Q1495.76 1557.67 1499.01 1560.85 Q1502.29 1564 1508.11 1564 Q1511.49 1564 1514.64 1563.17 Q1517.82 1562.35 1520.94 1560.69 L1520.94 1566.23 Q1517.79 1567.57 1514.48 1568.27 Q1511.17 1568.97 1507.76 1568.97 Q1499.23 1568.97 1494.24 1564 Q1489.27 1559.04 1489.27 1550.57 Q1489.27 1541.82 1493.98 1536.69 Q1498.72 1531.54 1506.74 1531.54 Q1513.94 1531.54 1518.11 1536.18 Q1522.31 1540.8 1522.31 1548.76 M1516.45 1547.04 Q1516.39 1542.23 1513.75 1539.37 Q1511.14 1536.5 1506.81 1536.5 Q1501.91 1536.5 1498.95 1539.27 Q1496.02 1542.04 1495.57 1547.07 L1516.45 1547.04 Z" fill="#000000" fill-rule="nonzero" fill-opacity="1"></path><polyline clip-path="url(#clip192)" style="stroke:#000000; stroke-linecap:round; stroke-linejoin:round; stroke-width:2; stroke-opacity:0.1; fill:none" points="212.459,1244.63 2352.76,1244.63 "></polyline>
<polyline clip-path="url(#clip192)" style="stroke:#000000; stroke-linecap:round; stroke-linejoin:round; stroke-width:2; stroke-opacity:0.1; fill:none" points="212.459,998.033 2352.76,998.033 "></polyline>
<polyline clip-path="url(#clip192)" style="stroke:#000000; stroke-linecap:round; stroke-linejoin:round; stroke-width:2; stroke-opacity:0.1; fill:none" points="212.459,751.434 2352.76,751.434 "></polyline>
<polyline clip-path="url(#clip192)" style="stroke:#000000; stroke-linecap:round; stroke-linejoin:round; stroke-width:2; stroke-opacity:0.1; fill:none" points="212.459,504.835 2352.76,504.835 "></polyline>
<polyline clip-path="url(#clip192)" style="stroke:#000000; stroke-linecap:round; stroke-linejoin:round; stroke-width:2; stroke-opacity:0.1; fill:none" points="212.459,258.236 2352.76,258.236 "></polyline>
<polyline clip-path="url(#clip190)" style="stroke:#000000; stroke-linecap:round; stroke-linejoin:round; stroke-width:4; stroke-opacity:1; fill:none" points="212.459,1423.18 212.459,47.2441 "></polyline>
<polyline clip-path="url(#clip190)" style="stroke:#000000; stroke-linecap:round; stroke-linejoin:round; stroke-width:4; stroke-opacity:1; fill:none" points="212.459,1244.63 231.357,1244.63 "></polyline>
<polyline clip-path="url(#clip190)" style="stroke:#000000; stroke-linecap:round; stroke-linejoin:round; stroke-width:4; stroke-opacity:1; fill:none" points="212.459,998.033 231.357,998.033 "></polyline>
<polyline clip-path="url(#clip190)" style="stroke:#000000; stroke-linecap:round; stroke-linejoin:round; stroke-width:4; stroke-opacity:1; fill:none" points="212.459,751.434 231.357,751.434 "></polyline>
<polyline clip-path="url(#clip190)" style="stroke:#000000; stroke-linecap:round; stroke-linejoin:round; stroke-width:4; stroke-opacity:1; fill:none" points="212.459,504.835 231.357,504.835 "></polyline>
<polyline clip-path="url(#clip190)" style="stroke:#000000; stroke-linecap:round; stroke-linejoin:round; stroke-width:4; stroke-opacity:1; fill:none" points="212.459,258.236 231.357,258.236 "></polyline>
<path clip-path="url(#clip190)" d="M114.26 1245.08 L143.936 1245.08 L143.936 1249.02 L114.26 1249.02 L114.26 1245.08 Z" fill="#000000" fill-rule="nonzero" fill-opacity="1"></path><path clip-path="url(#clip190)" d="M166.876 1231.43 L155.07 1249.87 L166.876 1249.87 L166.876 1231.43 M165.649 1227.35 L171.528 1227.35 L171.528 1249.87 L176.459 1249.87 L176.459 1253.76 L171.528 1253.76 L171.528 1261.91 L166.876 1261.91 L166.876 1253.76 L151.274 1253.76 L151.274 1249.25 L165.649 1227.35 Z" fill="#000000" fill-rule="nonzero" fill-opacity="1"></path><path clip-path="url(#clip190)" d="M116.343 998.484 L146.019 998.484 L146.019 1002.42 L116.343 1002.42 L116.343 998.484 Z" fill="#000000" fill-rule="nonzero" fill-opacity="1"></path><path clip-path="url(#clip190)" d="M160.14 1011.38 L176.459 1011.38 L176.459 1015.31 L154.515 1015.31 L154.515 1011.38 Q157.177 1008.62 161.76 1003.99 Q166.366 999.341 167.547 997.998 Q169.792 995.475 170.672 993.739 Q171.575 991.98 171.575 990.29 Q171.575 987.535 169.63 985.799 Q167.709 984.063 164.607 984.063 Q162.408 984.063 159.954 984.827 Q157.524 985.591 154.746 987.142 L154.746 982.42 Q157.57 981.285 160.024 980.707 Q162.477 980.128 164.515 980.128 Q169.885 980.128 173.079 982.813 Q176.274 985.498 176.274 989.989 Q176.274 992.119 175.464 994.04 Q174.677 995.938 172.57 998.531 Q171.991 999.202 168.889 1002.42 Q165.788 1005.61 160.14 1011.38 Z" fill="#000000" fill-rule="nonzero" fill-opacity="1"></path><path clip-path="url(#clip190)" d="M164.515 737.232 Q160.903 737.232 159.075 740.797 Q157.269 744.339 157.269 751.469 Q157.269 758.575 159.075 762.14 Q160.903 765.681 164.515 765.681 Q168.149 765.681 169.954 762.14 Q171.783 758.575 171.783 751.469 Q171.783 744.339 169.954 740.797 Q168.149 737.232 164.515 737.232 M164.515 733.529 Q170.325 733.529 173.38 738.135 Q176.459 742.719 176.459 751.469 Q176.459 760.195 173.38 764.802 Q170.325 769.385 164.515 769.385 Q158.704 769.385 155.626 764.802 Q152.57 760.195 152.57 751.469 Q152.57 742.719 155.626 738.135 Q158.704 733.529 164.515 733.529 Z" fill="#000000" fill-rule="nonzero" fill-opacity="1"></path><path clip-path="url(#clip190)" d="M160.14 518.18 L176.459 518.18 L176.459 522.115 L154.515 522.115 L154.515 518.18 Q157.177 515.425 161.76 510.795 Q166.366 506.143 167.547 504.8 Q169.792 502.277 170.672 500.541 Q171.575 498.782 171.575 497.092 Q171.575 494.337 169.63 492.601 Q167.709 490.865 164.607 490.865 Q162.408 490.865 159.954 491.629 Q157.524 492.393 154.746 493.944 L154.746 489.221 Q157.57 488.087 160.024 487.508 Q162.477 486.93 164.515 486.93 Q169.885 486.93 173.079 489.615 Q176.274 492.3 176.274 496.791 Q176.274 498.92 175.464 500.842 Q174.677 502.74 172.57 505.332 Q171.991 506.004 168.889 509.221 Q165.788 512.416 160.14 518.18 Z" fill="#000000" fill-rule="nonzero" fill-opacity="1"></path><path clip-path="url(#clip190)" d="M166.876 245.03 L155.07 263.479 L166.876 263.479 L166.876 245.03 M165.649 240.956 L171.528 240.956 L171.528 263.479 L176.459 263.479 L176.459 267.368 L171.528 267.368 L171.528 275.516 L166.876 275.516 L166.876 267.368 L151.274 267.368 L151.274 262.854 L165.649 240.956 Z" fill="#000000" fill-rule="nonzero" fill-opacity="1"></path><path clip-path="url(#clip190)" d="M46.0847 882.021 Q46.0847 889.119 47.7079 891.856 Q49.3312 894.593 53.2461 894.593 Q56.3653 894.593 58.2114 892.556 Q60.0256 890.487 60.0256 886.955 Q60.0256 882.085 56.5881 879.157 Q53.1188 876.196 47.3897 876.196 L46.0847 876.196 L46.0847 882.021 M43.6657 870.34 L64.0042 870.34 L64.0042 876.196 L58.5933 876.196 Q61.8398 878.202 63.3994 881.194 Q64.9272 884.185 64.9272 888.514 Q64.9272 893.989 61.8716 897.235 Q58.7843 900.45 53.6281 900.45 Q47.6125 900.45 44.5569 896.439 Q41.5014 892.397 41.5014 884.408 L41.5014 876.196 L40.9285 876.196 Q36.8862 876.196 34.6901 878.87 Q32.4621 881.512 32.4621 886.318 Q32.4621 889.373 33.1941 892.27 Q33.9262 895.166 35.3903 897.84 L29.9795 897.84 Q28.7381 894.625 28.1334 891.601 Q27.4968 888.578 27.4968 885.713 Q27.4968 877.979 31.5072 874.159 Q35.5176 870.34 43.6657 870.34 Z" fill="#000000" fill-rule="nonzero" fill-opacity="1"></path><path clip-path="url(#clip190)" d="M28.3562 862.478 L28.3562 856.272 L58.275 845.132 L28.3562 833.992 L28.3562 827.785 L64.0042 841.153 L64.0042 849.11 L28.3562 862.478 Z" fill="#000000" fill-rule="nonzero" fill-opacity="1"></path><path clip-path="url(#clip190)" d="M45.7664 796.243 Q39.4007 796.243 35.8996 798.885 Q32.3984 801.495 32.3984 806.237 Q32.3984 810.948 35.8996 813.59 Q39.4007 816.2 45.7664 816.2 Q52.1003 816.2 55.6014 813.59 Q59.1026 810.948 59.1026 806.237 Q59.1026 801.495 55.6014 798.885 Q52.1003 796.243 45.7664 796.243 M59.58 790.387 Q68.683 790.387 73.1071 794.429 Q77.5631 798.471 77.5631 806.81 Q77.5631 809.898 77.0857 812.635 Q76.6401 815.372 75.6852 817.95 L69.9879 817.95 Q71.3884 815.372 72.0568 812.858 Q72.7252 810.343 72.7252 807.733 Q72.7252 801.972 69.7015 799.108 Q66.7096 796.243 60.6303 796.243 L57.7339 796.243 Q60.885 798.057 62.4446 800.89 Q64.0042 803.723 64.0042 807.67 Q64.0042 814.226 59.0071 818.237 Q54.01 822.247 45.7664 822.247 Q37.491 822.247 32.4939 818.237 Q27.4968 814.226 27.4968 807.67 Q27.4968 803.723 29.0564 800.89 Q30.616 798.057 33.7671 796.243 L28.3562 796.243 L28.3562 790.387 L59.58 790.387 Z" fill="#000000" fill-rule="nonzero" fill-opacity="1"></path><path clip-path="url(#clip190)" d="M33.8307 736.947 Q33.2578 737.933 33.0032 739.111 Q32.7167 740.257 32.7167 741.657 Q32.7167 746.622 35.9632 749.296 Q39.1779 751.938 45.2253 751.938 L64.0042 751.938 L64.0042 757.826 L28.3562 757.826 L28.3562 751.938 L33.8944 751.938 Q30.6479 750.092 29.0883 747.132 Q27.4968 744.172 27.4968 739.939 Q27.4968 739.334 27.5923 738.602 Q27.656 737.87 27.8151 736.978 L33.8307 736.947 Z" fill="#000000" fill-rule="nonzero" fill-opacity="1"></path><path clip-path="url(#clip190)" d="M44.7161 701.744 L47.5806 701.744 L47.5806 728.671 Q53.6281 728.289 56.8109 725.043 Q59.9619 721.764 59.9619 715.94 Q59.9619 712.566 59.1344 709.415 Q58.3069 706.232 56.6518 703.113 L62.1899 703.113 Q63.5267 706.264 64.227 709.574 Q64.9272 712.884 64.9272 716.29 Q64.9272 724.82 59.9619 729.817 Q54.9967 734.782 46.5303 734.782 Q37.7774 734.782 32.6531 730.072 Q27.4968 725.329 27.4968 717.308 Q27.4968 710.115 32.1438 705.946 Q36.7589 701.744 44.7161 701.744 M42.9973 707.601 Q38.1912 707.664 35.3266 710.306 Q32.4621 712.916 32.4621 717.245 Q32.4621 722.146 35.2312 725.106 Q38.0002 728.035 43.0292 728.48 L42.9973 707.601 Z" fill="#000000" fill-rule="nonzero" fill-opacity="1"></path><path clip-path="url(#clip190)" d="M18.2347 686.339 L28.3562 686.339 L28.3562 674.276 L32.9077 674.276 L32.9077 686.339 L52.2594 686.339 Q56.6199 686.339 57.8613 685.162 Q59.1026 683.952 59.1026 680.292 L59.1026 674.276 L64.0042 674.276 L64.0042 680.292 Q64.0042 687.071 61.4897 689.649 Q58.9434 692.228 52.2594 692.228 L32.9077 692.228 L32.9077 696.524 L28.3562 696.524 L28.3562 692.228 L18.2347 692.228 L18.2347 686.339 Z" fill="#000000" fill-rule="nonzero" fill-opacity="1"></path><path clip-path="url(#clip190)" d="M49.9359 667.178 L28.3562 667.178 L28.3562 661.322 L49.7131 661.322 Q54.7739 661.322 57.3202 659.349 Q59.8346 657.375 59.8346 653.429 Q59.8346 648.686 56.8109 645.949 Q53.7872 643.18 48.5673 643.18 L28.3562 643.18 L28.3562 637.323 L64.0042 637.323 L64.0042 643.18 L58.5296 643.18 Q61.7762 645.312 63.3676 648.145 Q64.9272 650.946 64.9272 654.67 Q64.9272 660.813 61.1078 663.996 Q57.2883 667.178 49.9359 667.178 M27.4968 652.442 L27.4968 652.442 Z" fill="#000000" fill-rule="nonzero" fill-opacity="1"></path><path clip-path="url(#clip190)" d="M33.8307 604.604 Q33.2578 605.59 33.0032 606.768 Q32.7167 607.914 32.7167 609.314 Q32.7167 614.279 35.9632 616.953 Q39.1779 619.595 45.2253 619.595 L64.0042 619.595 L64.0042 625.483 L28.3562 625.483 L28.3562 619.595 L33.8944 619.595 Q30.6479 617.749 29.0883 614.789 Q27.4968 611.829 27.4968 607.595 Q27.4968 606.991 27.5923 606.259 Q27.656 605.527 27.8151 604.635 L33.8307 604.604 Z" fill="#000000" fill-rule="nonzero" fill-opacity="1"></path><path clip-path="url(#clip190)" d="M42.4881 569.974 L64.0042 569.974 L64.0042 575.831 L42.679 575.831 Q37.6183 575.831 35.1038 577.804 Q32.5894 579.777 32.5894 583.724 Q32.5894 588.467 35.6131 591.204 Q38.6368 593.941 43.8567 593.941 L64.0042 593.941 L64.0042 599.829 L28.3562 599.829 L28.3562 593.941 L33.8944 593.941 Q30.6797 591.84 29.0883 589.008 Q27.4968 586.143 27.4968 582.419 Q27.4968 576.276 31.3163 573.125 Q35.1038 569.974 42.4881 569.974 Z" fill="#000000" fill-rule="nonzero" fill-opacity="1"></path><polyline clip-path="url(#clip192)" style="stroke:#009af9; stroke-linecap:round; stroke-linejoin:round; stroke-width:4; stroke-opacity:1; fill:none" points="273.033,1382.87 281.134,785.921 289.253,898.162 301.016,455.578 313.333,214.076 325.962,537.633 337.799,279.683 350.055,101.638 455.515,521.73 466.705,279.362 482.337,359.415 495.441,121.018 509.019,1190.99 522.451,1081.38 537.202,427.524 551.773,435.274 668.545,640.551 683.703,100.534 698.167,986.943 709.406,177.09 719.539,210.316 730.595,301.533 741.338,110.879 750.683,283.406 861.443,166.838 876.631,753.167 891.099,190.413 905.793,640.82 920.583,685.262 934.715,494.254 950.014,90.6394 964.715,911.22 980.221,315.718 1097.5,608.404 1111.42,392.648 1125.42,987.222 1140.72,764.378 1156.04,92.6417 1170.96,822.006 1185.74,311.149 1200.48,647.692 1322.37,100.839 1337.88,119.501 1354.78,718.923 1369.27,217.842 1383.64,116.522 1397.89,549.072 1411.6,106.479 1425.8,123.113 1547.27,609.267 1561.03,119.961 "></polyline>
<polyline clip-path="url(#clip192)" style="stroke:#e26f46; stroke-linecap:round; stroke-linejoin:round; stroke-width:4; stroke-opacity:1; fill:none" points="273.033,1384.24 288.531,866.176 1032.58,688.8 1064.62,728.92 1079.13,768.442 1172.65,689.085 1186.65,685.215 1200.76,685.799 1295.28,701.49 1309.44,692.949 1323.76,709.611 1338.01,686.633 1352.62,701.719 1366.9,686.278 1381.2,830.53 1395.35,693.608 1489.78,685.644 1504.95,708.463 1519.23,686.123 1533.44,791.788 1547.87,755.966 1562.35,685.267 1576.71,690.894 1591.22,688.648 1605.97,688.906 1704.61,685.849 1718.47,685.822 1729.48,688.979 1741.66,686.184 1750.62,686.846 1762.15,691.272 1772.53,686.147 1780.91,704.088 1874.48,695.366 1885.4,691.012 1892.85,688.707 1902.28,687.71 1915.8,702.762 1930.31,737.441 1943.33,898.061 1953.98,666.83 1967.19,167.745 2071.17,97.5077 2088.61,134.956 2101.26,87.7762 2113.49,94.512 2128.56,112.948 2147.43,143.557 2166.07,100.836 2178.33,97.2406 2292.18,86.1857 "></polyline>
<path clip-path="url(#clip190)" d="M1819.93 1377.32 L2281.41 1377.32 L2281.41 1221.8 L1819.93 1221.8  Z" fill="#ffffff" fill-rule="evenodd" fill-opacity="1"></path>
<polyline clip-path="url(#clip190)" style="stroke:#000000; stroke-linecap:round; stroke-linejoin:round; stroke-width:4; stroke-opacity:1; fill:none" points="1819.93,1377.32 2281.41,1377.32 2281.41,1221.8 1819.93,1221.8 1819.93,1377.32 "></polyline>
<polyline clip-path="url(#clip190)" style="stroke:#009af9; stroke-linecap:round; stroke-linejoin:round; stroke-width:4; stroke-opacity:1; fill:none" points="1843.71,1273.64 1986.4,1273.64 "></polyline>
<path clip-path="url(#clip190)" d="M2026.2 1259.53 Q2021.11 1259.53 2018.1 1263.32 Q2015.11 1267.12 2015.11 1273.67 Q2015.11 1280.2 2018.1 1283.99 Q2021.11 1287.79 2026.2 1287.79 Q2031.29 1287.79 2034.25 1283.99 Q2037.24 1280.2 2037.24 1273.67 Q2037.24 1267.12 2034.25 1263.32 Q2031.29 1259.53 2026.2 1259.53 M2032.75 1290.29 L2038.91 1297.03 L2033.26 1297.03 L2028.14 1291.49 Q2027.38 1291.54 2026.96 1291.56 Q2026.57 1291.59 2026.2 1291.59 Q2018.91 1291.59 2014.53 1286.73 Q2010.18 1281.84 2010.18 1273.67 Q2010.18 1265.48 2014.53 1260.61 Q2018.91 1255.73 2026.2 1255.73 Q2033.47 1255.73 2037.82 1260.61 Q2042.17 1265.48 2042.17 1273.67 Q2042.17 1279.69 2039.74 1283.97 Q2037.33 1288.25 2032.75 1290.29 Z" fill="#000000" fill-rule="nonzero" fill-opacity="1"></path><path clip-path="url(#clip190)" d="M2069 1298.79 L2069 1302.1 L2044.37 1302.1 L2044.37 1298.79 L2069 1298.79 Z" fill="#000000" fill-rule="nonzero" fill-opacity="1"></path><path clip-path="url(#clip190)" d="M2073 1254.9 L2077.26 1254.9 L2077.26 1290.92 L2073 1290.92 L2073 1254.9 Z" fill="#000000" fill-rule="nonzero" fill-opacity="1"></path><path clip-path="url(#clip190)" d="M2108.35 1276.89 L2108.35 1278.97 L2088.77 1278.97 Q2089.04 1283.37 2091.41 1285.68 Q2093.79 1287.98 2098.03 1287.98 Q2100.48 1287.98 2102.77 1287.37 Q2105.09 1286.77 2107.35 1285.57 L2107.35 1289.6 Q2105.06 1290.57 2102.66 1291.08 Q2100.25 1291.59 2097.77 1291.59 Q2091.57 1291.59 2087.93 1287.98 Q2084.32 1284.36 2084.32 1278.21 Q2084.32 1271.84 2087.75 1268.11 Q2091.2 1264.36 2097.03 1264.36 Q2102.26 1264.36 2105.29 1267.74 Q2108.35 1271.1 2108.35 1276.89 M2104.09 1275.64 Q2104.04 1272.14 2102.12 1270.06 Q2100.23 1267.98 2097.08 1267.98 Q2093.51 1267.98 2091.36 1269.99 Q2089.23 1272 2088.91 1275.66 L2104.09 1275.64 Z" fill="#000000" fill-rule="nonzero" fill-opacity="1"></path><path clip-path="url(#clip190)" d="M2127.12 1277.88 Q2121.96 1277.88 2119.97 1279.06 Q2117.98 1280.24 2117.98 1283.09 Q2117.98 1285.36 2119.46 1286.7 Q2120.97 1288.02 2123.54 1288.02 Q2127.08 1288.02 2129.21 1285.52 Q2131.36 1283 2131.36 1278.83 L2131.36 1277.88 L2127.12 1277.88 M2135.62 1276.12 L2135.62 1290.92 L2131.36 1290.92 L2131.36 1286.98 Q2129.9 1289.34 2127.72 1290.48 Q2125.55 1291.59 2122.4 1291.59 Q2118.42 1291.59 2116.06 1289.36 Q2113.72 1287.12 2113.72 1283.37 Q2113.72 1278.99 2116.64 1276.77 Q2119.58 1274.55 2125.39 1274.55 L2131.36 1274.55 L2131.36 1274.13 Q2131.36 1271.19 2129.41 1269.6 Q2127.49 1267.98 2124 1267.98 Q2121.78 1267.98 2119.67 1268.51 Q2117.56 1269.04 2115.62 1270.11 L2115.62 1266.17 Q2117.96 1265.27 2120.16 1264.83 Q2122.35 1264.36 2124.44 1264.36 Q2130.06 1264.36 2132.84 1267.28 Q2135.62 1270.2 2135.62 1276.12 Z" fill="#000000" fill-rule="nonzero" fill-opacity="1"></path><path clip-path="url(#clip190)" d="M2159.41 1268.97 Q2158.7 1268.55 2157.84 1268.37 Q2157.01 1268.16 2155.99 1268.16 Q2152.38 1268.16 2150.43 1270.52 Q2148.51 1272.86 2148.51 1277.26 L2148.51 1290.92 L2144.23 1290.92 L2144.23 1264.99 L2148.51 1264.99 L2148.51 1269.02 Q2149.85 1266.66 2152.01 1265.52 Q2154.16 1264.36 2157.24 1264.36 Q2157.68 1264.36 2158.21 1264.43 Q2158.74 1264.48 2159.39 1264.6 L2159.41 1268.97 Z" fill="#000000" fill-rule="nonzero" fill-opacity="1"></path><path clip-path="url(#clip190)" d="M2184.6 1275.27 L2184.6 1290.92 L2180.34 1290.92 L2180.34 1275.41 Q2180.34 1271.73 2178.91 1269.9 Q2177.47 1268.07 2174.6 1268.07 Q2171.15 1268.07 2169.16 1270.27 Q2167.17 1272.47 2167.17 1276.26 L2167.17 1290.92 L2162.89 1290.92 L2162.89 1264.99 L2167.17 1264.99 L2167.17 1269.02 Q2168.7 1266.68 2170.76 1265.52 Q2172.84 1264.36 2175.55 1264.36 Q2180.02 1264.36 2182.31 1267.14 Q2184.6 1269.9 2184.6 1275.27 Z" fill="#000000" fill-rule="nonzero" fill-opacity="1"></path><path clip-path="url(#clip190)" d="M2193.09 1264.99 L2197.35 1264.99 L2197.35 1290.92 L2193.09 1290.92 L2193.09 1264.99 M2193.09 1254.9 L2197.35 1254.9 L2197.35 1260.29 L2193.09 1260.29 L2193.09 1254.9 Z" fill="#000000" fill-rule="nonzero" fill-opacity="1"></path><path clip-path="url(#clip190)" d="M2227.82 1275.27 L2227.82 1290.92 L2223.56 1290.92 L2223.56 1275.41 Q2223.56 1271.73 2222.12 1269.9 Q2220.69 1268.07 2217.82 1268.07 Q2214.37 1268.07 2212.38 1270.27 Q2210.39 1272.47 2210.39 1276.26 L2210.39 1290.92 L2206.1 1290.92 L2206.1 1264.99 L2210.39 1264.99 L2210.39 1269.02 Q2211.91 1266.68 2213.97 1265.52 Q2216.06 1264.36 2218.77 1264.36 Q2223.23 1264.36 2225.53 1267.14 Q2227.82 1269.9 2227.82 1275.27 Z" fill="#000000" fill-rule="nonzero" fill-opacity="1"></path><path clip-path="url(#clip190)" d="M2253.37 1277.65 Q2253.37 1273.02 2251.45 1270.48 Q2249.55 1267.93 2246.1 1267.93 Q2242.68 1267.93 2240.76 1270.48 Q2238.86 1273.02 2238.86 1277.65 Q2238.86 1282.26 2240.76 1284.8 Q2242.68 1287.35 2246.1 1287.35 Q2249.55 1287.35 2251.45 1284.8 Q2253.37 1282.26 2253.37 1277.65 M2257.63 1287.7 Q2257.63 1294.32 2254.69 1297.54 Q2251.75 1300.78 2245.69 1300.78 Q2243.44 1300.78 2241.45 1300.43 Q2239.46 1300.11 2237.59 1299.41 L2237.59 1295.27 Q2239.46 1296.29 2241.29 1296.77 Q2243.12 1297.26 2245.02 1297.26 Q2249.21 1297.26 2251.29 1295.06 Q2253.37 1292.88 2253.37 1288.46 L2253.37 1286.36 Q2252.05 1288.65 2249.99 1289.78 Q2247.93 1290.92 2245.06 1290.92 Q2240.29 1290.92 2237.38 1287.28 Q2234.46 1283.65 2234.46 1277.65 Q2234.46 1271.63 2237.38 1268 Q2240.29 1264.36 2245.06 1264.36 Q2247.93 1264.36 2249.99 1265.5 Q2252.05 1266.63 2253.37 1268.92 L2253.37 1264.99 L2257.63 1264.99 L2257.63 1287.7 Z" fill="#000000" fill-rule="nonzero" fill-opacity="1"></path><polyline clip-path="url(#clip190)" style="stroke:#e26f46; stroke-linecap:round; stroke-linejoin:round; stroke-width:4; stroke-opacity:1; fill:none" points="1843.71,1325.48 1986.4,1325.48 "></polyline>
<path clip-path="url(#clip190)" d="M2032.42 1309.33 L2032.42 1313.89 Q2029.76 1312.62 2027.4 1311.99 Q2025.04 1311.37 2022.84 1311.37 Q2019.02 1311.37 2016.94 1312.85 Q2014.88 1314.33 2014.88 1317.06 Q2014.88 1319.35 2016.24 1320.53 Q2017.63 1321.69 2021.48 1322.41 L2024.3 1322.99 Q2029.53 1323.98 2032.01 1326.51 Q2034.51 1329.01 2034.51 1333.22 Q2034.51 1338.24 2031.13 1340.83 Q2027.77 1343.43 2021.27 1343.43 Q2018.81 1343.43 2016.04 1342.87 Q2013.28 1342.32 2010.32 1341.23 L2010.32 1336.41 Q2013.17 1338.01 2015.9 1338.82 Q2018.63 1339.63 2021.27 1339.63 Q2025.27 1339.63 2027.45 1338.06 Q2029.62 1336.48 2029.62 1333.57 Q2029.62 1331.02 2028.05 1329.58 Q2026.5 1328.15 2022.93 1327.43 L2020.09 1326.88 Q2014.86 1325.83 2012.52 1323.61 Q2010.18 1321.39 2010.18 1317.43 Q2010.18 1312.85 2013.4 1310.21 Q2016.64 1307.57 2022.31 1307.57 Q2024.74 1307.57 2027.26 1308.01 Q2029.79 1308.45 2032.42 1309.33 Z" fill="#000000" fill-rule="nonzero" fill-opacity="1"></path><path clip-path="url(#clip190)" d="M2054.23 1312.8 L2047.89 1330 L2060.6 1330 L2054.23 1312.8 M2051.59 1308.2 L2056.89 1308.2 L2070.06 1342.76 L2065.2 1342.76 L2062.05 1333.89 L2046.48 1333.89 L2043.33 1342.76 L2038.4 1342.76 L2051.59 1308.2 Z" fill="#000000" fill-rule="nonzero" fill-opacity="1"></path><path clip-path="url(#clip190)" d="M2091.5 1326.55 Q2093 1327.06 2094.41 1328.73 Q2095.85 1330.39 2097.29 1333.31 L2102.03 1342.76 L2097.01 1342.76 L2092.59 1333.89 Q2090.87 1330.42 2089.25 1329.28 Q2087.66 1328.15 2084.88 1328.15 L2079.79 1328.15 L2079.79 1342.76 L2075.11 1342.76 L2075.11 1308.2 L2085.66 1308.2 Q2091.59 1308.2 2094.51 1310.67 Q2097.42 1313.15 2097.42 1318.15 Q2097.42 1321.41 2095.9 1323.57 Q2094.39 1325.72 2091.5 1326.55 M2079.79 1312.04 L2079.79 1324.31 L2085.66 1324.31 Q2089.04 1324.31 2090.76 1322.76 Q2092.49 1321.18 2092.49 1318.15 Q2092.49 1315.12 2090.76 1313.59 Q2089.04 1312.04 2085.66 1312.04 L2079.79 1312.04 Z" fill="#000000" fill-rule="nonzero" fill-opacity="1"></path><path clip-path="url(#clip190)" d="M2128.77 1309.33 L2128.77 1313.89 Q2126.1 1312.62 2123.74 1311.99 Q2121.38 1311.37 2119.18 1311.37 Q2115.36 1311.37 2113.28 1312.85 Q2111.22 1314.33 2111.22 1317.06 Q2111.22 1319.35 2112.59 1320.53 Q2113.97 1321.69 2117.82 1322.41 L2120.64 1322.99 Q2125.87 1323.98 2128.35 1326.51 Q2130.85 1329.01 2130.85 1333.22 Q2130.85 1338.24 2127.47 1340.83 Q2124.11 1343.43 2117.61 1343.43 Q2115.16 1343.43 2112.38 1342.87 Q2109.62 1342.32 2106.66 1341.23 L2106.66 1336.41 Q2109.51 1338.01 2112.24 1338.82 Q2114.97 1339.63 2117.61 1339.63 Q2121.61 1339.63 2123.79 1338.06 Q2125.97 1336.48 2125.97 1333.57 Q2125.97 1331.02 2124.39 1329.58 Q2122.84 1328.15 2119.28 1327.43 L2116.43 1326.88 Q2111.2 1325.83 2108.86 1323.61 Q2106.52 1321.39 2106.52 1317.43 Q2106.52 1312.85 2109.74 1310.21 Q2112.98 1307.57 2118.65 1307.57 Q2121.08 1307.57 2123.6 1308.01 Q2126.13 1308.45 2128.77 1309.33 Z" fill="#000000" fill-rule="nonzero" fill-opacity="1"></path><path clip-path="url(#clip190)" d="M2150.57 1312.8 L2144.23 1330 L2156.94 1330 L2150.57 1312.8 M2147.93 1308.2 L2153.23 1308.2 L2166.41 1342.76 L2161.54 1342.76 L2158.4 1333.89 L2142.82 1333.89 L2139.67 1342.76 L2134.74 1342.76 L2147.93 1308.2 Z" fill="#000000" fill-rule="nonzero" fill-opacity="1"></path></svg>